<svg width="13" height="14" viewBox="0 0 13 14" fill="none" xmlns="http://www.w3.org/2000/svg">
<g clip-path="url(#clip0_129_23)">
<path d="M4.37004 1.62L1.71004 11.3L4.1829e-05 2.82C-0.0299582 2.65 0.0800418 2.48 0.250042 2.44L4.37004 1.61V1.62ZM2.62004 12.16L2.65004 12.05L2.53004 12.07C2.53004 12.07 2.59004 12.13 2.63004 12.15L2.62004 12.16ZM2.65004 12.05L2.62004 12.16C2.62004 12.16 2.55004 12.11 2.52004 12.08L2.64004 12.06L2.65004 12.05ZM12.8 2.21L9.62004 13.76C9.57004 13.93 9.39004 14.04 9.22004 13.99L2.71004 12.2C2.71004 12.2 2.66004 12.18 2.64004 12.17L2.67004 12.06L2.55004 12.08C2.49004 12 2.46004 11.89 2.49004 11.79L5.32004 1.43L5.65004 0.24C5.69004 0.09 5.83004 0 5.98004 0C6.00004 0 6.03004 0 6.06004 0.01L12.57 1.8C12.74 1.85 12.85 2.03 12.8 2.2V2.21ZM9.60004 6.57C9.59004 6.33 9.49004 6.13 9.33004 5.96C9.21004 5.83 9.06004 5.75 8.88004 5.73C8.75004 5.71 8.62004 5.73 8.49004 5.76C8.28004 5.81 8.09004 5.9 7.92004 6.02C7.91004 6.02 7.90004 6.02 7.89004 6.02C7.82004 5.88 7.75004 5.75 7.65004 5.63C7.54004 5.49 7.41004 5.37 7.25004 5.29C7.22004 5.28 7.20004 5.26 7.17004 5.25C7.03004 5.2 6.89004 5.19 6.75004 5.23C6.60004 5.27 6.46004 5.34 6.34004 5.44C6.19004 5.56 6.09004 5.72 6.03004 5.91C6.01004 5.96 6.01004 6.01 6.00004 6.06C5.98004 6.26 6.02004 6.45 6.11004 6.62C6.17004 6.73 6.24004 6.84 6.30004 6.96C6.47004 7.25 6.64004 7.54 6.81004 7.84C6.94004 8.06 7.06004 8.28 7.19004 8.5C7.19004 8.52 7.21004 8.52 7.22004 8.5C7.37004 8.41 7.52004 8.34 7.66004 8.25C7.71004 8.22 7.76004 8.19 7.82004 8.16C8.02004 8.05 8.22004 7.94 8.42004 7.83C8.56004 7.75 8.70004 7.67 8.84004 7.59C8.93004 7.54 9.02004 7.49 9.10004 7.44C9.13004 7.42 9.16004 7.4 9.19004 7.38C9.35004 7.27 9.46004 7.11 9.52004 6.93C9.57004 6.81 9.58004 6.68 9.57004 6.56L9.60004 6.57Z" fill="white"/>
</g>
<defs>
<clipPath id="clip0_129_23">
<rect width="12.81" height="14" fill="white"/>
</clipPath>
</defs>
</svg>
