<svg width="14" height="14" viewBox="0 0 14 14" fill="none" xmlns="http://www.w3.org/2000/svg">
<g clip-path="url(#clip0_129_26)">
<path d="M12.98 0H0.38C0.17 0 0 0.17 0 0.38V13.61C0 13.82 0.17 13.99 0.38 13.99H12.98C13.19 13.99 13.36 13.82 13.36 13.61V0.38C13.36 0.17 13.19 0 12.98 0ZM7.23 8.11C6.12 9.22 5.02 10.32 3.91 11.43C3.65 11.69 3.51 11.69 3.25 11.43C2.74 10.92 2.22 10.4 1.71 9.89C1.41 9.59 1.41 9.35 1.71 9.04C1.84 8.91 1.97 8.77 2.17 8.78C2.33 8.78 2.44 8.84 2.54 8.95C2.84 9.25 3.15 9.55 3.45 9.86C3.55 9.96 3.6 9.95 3.7 9.86C4.59 8.96 5.49 8.06 6.39 7.16C6.69 6.86 6.93 6.86 7.23 7.16C7.6 7.53 7.6 7.74 7.23 8.11ZM7.23 3.55C6.12 4.66 5.02 5.76 3.91 6.87C3.65 7.13 3.51 7.13 3.25 6.87C2.74 6.36 2.22 5.84 1.71 5.33C1.41 5.03 1.41 4.79 1.71 4.48C1.84 4.35 1.97 4.21 2.17 4.22C2.33 4.22 2.44 4.28 2.54 4.39C2.84 4.69 3.15 4.99 3.45 5.3C3.55 5.4 3.6 5.39 3.7 5.3C4.59 4.4 5.49 3.5 6.39 2.6C6.69 2.3 6.93 2.3 7.23 2.6C7.6 2.97 7.6 3.18 7.23 3.55ZM11.88 10.14H8.7V8.43H11.88V10.14ZM11.88 5.58H8.7V3.87H11.88V5.58Z" fill="white"/>
</g>
<defs>
<clipPath id="clip0_129_26">
<rect width="13.36" height="14" fill="white"/>
</clipPath>
</defs>
</svg>
