<svg width="14" height="14" viewBox="0 0 14 14" fill="none" xmlns="http://www.w3.org/2000/svg">
<g clip-path="url(#clip0_129_20)">
<path d="M7.72001 7.04C7.16001 7.59 6.45001 7.97 5.65001 8.12C4.15001 8.39 2.33001 8.61 0.23001 8.76C0.0900098 8.2 0.0100098 7.61 0.0100098 7.01C0.0100098 5.24 0.67001 3.61 1.76001 2.39C3.91001 3.39 5.98001 5.02 7.73001 7.05L7.72001 7.04ZM8.94001 0.27C8.32001 0.09 7.67001 0 7.00001 0C5.35001 0 3.84001 0.57 2.64001 1.52C4.73001 2.56 6.72001 4.14 8.44001 6.09C8.68001 5.64 8.85001 5.12 8.90001 4.58C9.03001 3.14 8.99001 1.28 8.94001 0.28V0.27ZM8.46001 7.94C7.75001 8.61 6.85001 9.08 5.85001 9.26C4.39001 9.53 2.63001 9.75 0.62001 9.9C1.72001 12.31 4.17001 13.99 6.99001 13.99C7.19001 13.99 7.40001 13.99 7.59001 13.96C7.90001 12.94 8.21001 12.03 8.52001 11.22C8.77001 10.58 9.15001 10.02 9.62001 9.57C9.25001 9.01 8.86001 8.46 8.45001 7.93L8.46001 7.94ZM10.26 10.6C9.99001 10.91 9.77001 11.26 9.63001 11.65C9.39001 12.28 9.15001 12.97 8.89001 13.74C9.76001 13.5 10.56 13.09 11.25 12.55C10.95 11.88 10.62 11.24 10.26 10.6ZM10.13 0.74C10.17 1.82 10.19 3.39 10.06 4.69C9.97001 5.54 9.68001 6.34 9.22001 7.02C9.70001 7.61 10.14 8.23 10.55 8.87C11.36 8.41 12.3 8.18 13.27 8.26C13.47 8.28 13.66 8.3 13.85 8.32C13.94 7.89 13.97 7.45 13.97 7C13.97 4.26 12.4 1.9 10.11 0.74H10.13ZM11.18 9.86C11.53 10.46 11.86 11.09 12.16 11.72C12.75 11.07 13.23 10.3 13.55 9.46C13.42 9.46 13.31 9.44 13.18 9.43C12.47 9.37 11.78 9.52 11.18 9.86Z" fill="white"/>
</g>
<defs>
<clipPath id="clip0_129_20">
<rect width="14" height="14" fill="white"/>
</clipPath>
</defs>
</svg>
