<svg width="30" height="30" viewBox="0 0 30 30" fill="none" xmlns="http://www.w3.org/2000/svg">
<circle cx="15" cy="15" r="15" fill="#8DC351"/>
<path fill-rule="evenodd" clip-rule="evenodd" d="M19.888 9.94776C19.1372 8.08209 17.3541 7.98881 15.1955 8.36194L14.4448 5.75L12.8493 6.21642L13.6001 8.73507C13.448 8.77287 13.2806 8.82597 13.1039 8.88197C12.8445 8.96421 12.5654 9.05272 12.2863 9.10821L11.5355 6.49627L9.94005 6.96269L10.6908 9.57463C10.5031 9.62127 10.3389 9.66791 10.1747 9.71455L10.1747 9.71455L10.1747 9.71456C10.0104 9.7612 9.8462 9.80784 9.65851 9.85448L7.5 10.6007L7.96924 12.2799C7.96924 12.2799 9.18927 11.9067 9.09542 11.9067C9.75235 11.7201 10.0339 12 10.2216 12.3731L11.0662 15.3582H11.2539L11.0662 15.4515L12.2863 19.6493C12.2863 19.8358 12.2863 20.209 11.817 20.3955L10.6908 20.7687L10.8785 22.7276L12.9432 22.1679L14.0694 21.8881L14.8202 24.5L16.4156 24.0336L15.6648 21.4216C16.134 21.3284 16.5094 21.2351 16.9787 21.0485L17.7294 23.6604L19.3249 23.194L18.5741 20.5821C21.2018 19.6493 22.8911 18.4366 22.4218 15.8246C22.0465 13.7724 20.8264 13.1194 19.1372 13.2127C20.0756 12.2799 20.451 11.347 19.888 9.94776ZM19.3248 16.291C19.8212 18.0179 17.1817 18.8024 15.7779 19.2196C15.5892 19.2757 15.4228 19.3252 15.2894 19.3694L14.257 15.8246C14.4051 15.7878 14.5904 15.7333 14.8021 15.671C16.2012 15.2595 18.7543 14.5085 19.3248 16.291ZM14.0495 14.1637C15.1715 13.8467 17.5903 13.1635 17.0725 11.5336C16.648 9.84583 14.3035 10.6009 13.1654 10.9675C13.0454 11.0061 12.9388 11.0405 12.8493 11.0672L13.7878 14.2388C13.8632 14.2163 13.9514 14.1914 14.0495 14.1637Z" fill="white"/>
</svg>
