<svg width="30" height="30" viewBox="0 0 30 30" fill="none" xmlns="http://www.w3.org/2000/svg">
<circle cx="15" cy="15" r="15" fill="#988430"/>
<circle cx="15" cy="15" r="14.5195" fill="#7A6A2A"/>
<circle cx="15" cy="15" r="14.2136" fill="#BA9F33"/>
<path fill-rule="evenodd" clip-rule="evenodd" d="M6.55829 13.3981C6.47333 13.3205 6.38357 13.2427 6.30101 13.1651C6.21845 13.0875 6.13365 13.0098 6.04869 12.9322L5.79621 12.6922C5.75493 12.6509 5.71125 12.6146 5.66997 12.5731C5.62869 12.5368 5.58021 12.4955 5.53893 12.459C5.20389 12.1411 4.86693 11.8232 4.53653 11.5051C4.87877 11.8182 5.21381 12.1291 5.55605 12.4469L5.67493 12.5659C5.71621 12.607 5.75989 12.6435 5.80117 12.6848L6.05349 12.9178C6.13845 12.9954 6.22101 13.0731 6.30597 13.1578C6.39093 13.2424 6.47349 13.3203 6.55845 13.3978L6.55829 13.3981ZM2.11173 13.3501C2.11173 13.3501 3.33013 13.4762 3.92485 13.5611C4.47573 13.6389 6.19909 13.9034 6.19909 13.9034L2.11173 13.3501ZM2.11173 13.3501C2.45397 13.3792 2.79621 13.4155 3.13845 13.452C3.31317 13.469 3.48069 13.4883 3.64821 13.5053L3.90533 13.5346C3.99029 13.5466 4.07285 13.5587 4.15781 13.5709L5.17733 13.7334L5.68693 13.8184C5.85445 13.8475 6.02197 13.8792 6.19669 13.9083C6.02917 13.8914 5.85445 13.867 5.68693 13.8427L5.17733 13.7699L4.15781 13.6195C4.07285 13.6074 3.99029 13.5902 3.90533 13.5782L3.64805 13.5486C3.48053 13.5317 3.30581 13.5074 3.13829 13.4878C2.79605 13.4467 2.45381 13.4029 2.11157 13.3496L2.11173 13.3501ZM6.07781 14.2208C6.07781 14.2208 4.77685 14.551 4.33749 14.6773C3.90549 14.7962 2.59717 15.1942 2.59717 15.1942L6.07765 14.221L6.07781 14.2208Z" fill="#CFB66C"/>
<path fill-rule="evenodd" clip-rule="evenodd" d="M6.07765 14.2208C5.78885 14.3058 5.50165 14.3883 5.20869 14.4661L4.33973 14.699C4.05093 14.784 3.76373 14.8666 3.47573 14.9515L3.04373 15.0704C2.90053 15.1117 2.75493 15.148 2.60693 15.1894C2.74997 15.1414 2.89573 15.0923 3.03893 15.051L3.47093 14.9128C3.75973 14.8229 4.04693 14.7379 4.33493 14.6482C4.62853 14.5754 4.91749 14.4976 5.21109 14.4272C5.49013 14.3568 5.78389 14.2866 6.07765 14.221V14.221V14.2208ZM2.77925 15.9952C2.92229 15.9417 4.57285 15.1724 4.95637 14.9928C5.14837 14.9028 5.70645 14.7048 5.70645 14.7048L2.77925 15.9952Z" fill="#CFB66C"/>
<path fill-rule="evenodd" clip-rule="evenodd" d="M2.77921 15.9952C2.90529 15.9472 3.02433 15.8885 3.14561 15.8326L3.50481 15.6651L4.22577 15.3181C4.46577 15.204 4.69905 15.0781 4.94657 14.9709C5.07281 14.9176 5.19905 14.8739 5.32513 14.8326L5.51713 14.772C5.58257 14.755 5.64337 14.7355 5.70913 14.7186C5.46913 14.8326 5.21649 14.9298 4.97617 15.0413C4.73617 15.1603 4.49073 15.2574 4.24305 15.3642L3.51009 15.6869C3.26401 15.7866 3.02401 15.8933 2.77905 15.9952V15.9952H2.77921ZM2.93921 16.6672C2.93921 16.6672 4.43425 15.791 4.94881 15.5094C5.21825 15.359 6.08961 14.9269 6.08961 14.9269L2.93921 16.6672Z" fill="#CFB66C"/>
<path fill-rule="evenodd" clip-rule="evenodd" d="M2.93933 16.6675C3.19165 16.5122 3.44893 16.3544 3.70621 16.1942L4.09021 15.9611C4.22125 15.8835 4.34749 15.8107 4.48109 15.7331C4.61213 15.6554 4.73837 15.5778 4.87181 15.505C4.93534 15.4657 5.00189 15.4316 5.07085 15.403L5.27469 15.3011C5.54413 15.1701 5.81357 15.0365 6.09757 14.9224C5.84029 15.0851 5.57565 15.2235 5.31117 15.3666C5.18013 15.4394 5.04653 15.505 4.91549 15.5778C4.78445 15.6506 4.65821 15.7283 4.52461 15.7987C4.39357 15.8763 4.26733 15.9491 4.13389 16.0195L3.73821 16.2355L2.93965 16.6675V16.6675H2.93933ZM6.07757 15.1189C6.07757 15.1189 5.14797 15.8325 4.84701 16.0607C4.54605 16.2888 3.66013 16.9296 3.66013 16.9296L6.07757 15.1189V15.1189Z" fill="#CFB66C"/>
<path fill-rule="evenodd" clip-rule="evenodd" d="M11.4127 20.8738L10.937 19.9733L11.2137 18.8471L13.1869 18.085L12.3471 16.3618L12.7621 14.6215L13.5413 13.0631L15.9492 12.6845L17.7185 10.9976L21.5389 11.2864L22.2889 15.3714L20.8447 20.5146L20.022 23.1773L16.6869 23.3035L15.1385 22.2307L13.3253 21.4733L11.4127 20.8738V20.8738Z" fill="#E2CC85"/>
<path fill-rule="evenodd" clip-rule="evenodd" d="M17.2623 20.8446C17.2623 20.8446 16.801 21.0558 16.0143 21.0072C15.7866 20.7014 14.192 20.5582 14.192 20.5582C14.192 20.5582 13.993 20.4976 13.641 20.6432C13.2867 20.7872 12.9517 20.7694 12.6386 20.847C12.3255 20.9246 12.0146 20.517 11.7746 20.432C11.5346 20.3422 11.2163 20.1262 11.2163 20.1262L10.5443 20.0606L9.1949 19.4902L7.05106 17.3544L6.4685 18.2664L6.28882 19.395L6.93698 20.7325L8.6821 22.3222L12.085 23.1862L14.1019 22.592L16.6287 21.524L17.2623 20.8445V20.8446Z" fill="#F1D789"/>
<path fill-rule="evenodd" clip-rule="evenodd" d="M5.17234 13.2962L5.60434 11.988L6.11906 11.1432L7.77666 11.0048L7.27906 12.4563L5.8933 14.9224L6.4685 17.1239L5.44914 17.6335L5.13586 17.153L4.88354 16.0511L4.86658 14.8131L5.17234 13.2962V13.2962Z" fill="#F4ECB4"/>
<path fill-rule="evenodd" clip-rule="evenodd" d="M7.03153 20.7549L6.71361 20.3107C6.71361 20.3107 6.62865 20.0995 6.67729 19.915C6.72529 19.7281 6.71841 19.716 6.69425 19.6456C6.67009 19.5752 6.46609 19.3325 6.47825 19.1237C6.49025 18.9125 6.46129 18.8421 6.61649 18.6747C6.77905 18.5121 6.73057 18.2305 6.73057 18.2305L6.94177 18.3616L6.98977 18.2888C6.98977 18.2888 7.06737 18.3494 7.06737 18.4441C7.08433 18.3131 7.01393 17.7062 7.17409 17.568C7.33425 17.4297 7.61825 18.216 7.61825 18.216L7.44353 17.0752L6.99441 15.9054L6.19585 14.8374L6.14785 13.6601V13.5582C6.14785 13.5582 5.78129 14.1214 5.67937 14.5662C5.60657 14.872 5.78129 15.2433 5.74497 15.6827C5.71569 16.1197 5.67937 16.0856 5.78609 16.2587C5.89281 16.4318 6.15265 16.7878 6.05073 17.0451C5.96097 17.2661 5.65505 17.1107 5.65505 17.1107C5.65505 17.1107 5.59441 17.2902 5.51185 17.3558C5.48273 17.2491 5.45121 17.1811 5.39297 17.1158C5.38801 17.1571 5.37601 17.2129 5.37601 17.2129C5.37601 17.2129 5.32257 17.0454 5.26913 16.8342C5.19649 16.5528 5.11873 16.1814 5.04833 15.9824C5.01921 16.0965 4.94641 16.4435 4.94641 16.4435L4.98769 16.9776L5.18673 17.7105L5.37873 18.1905L5.56561 18.7779L5.72801 19.1725L5.85905 19.4734L5.97313 20.1507L6.52401 20.7331L6.81777 20.8643L7.03121 20.755V20.755L7.03153 20.7549Z" fill="#F3E19D"/>
<path fill-rule="evenodd" clip-rule="evenodd" d="M5.46108 12.2282C5.46108 12.2282 5.0654 12.9002 4.95148 13.5776C4.83756 14.255 4.73548 14.9709 4.80748 15.8931C4.88028 16.8229 5.01868 17.3931 5.13036 17.801C5.32236 18.4782 5.81964 19.42 5.81964 19.42L5.8366 19.3835C5.75301 19.2251 5.6863 19.0583 5.63756 18.8859C5.57196 18.6286 5.54764 18.3229 5.487 18.1845C5.43356 18.0462 5.3438 17.9272 5.30012 17.7573C5.25884 17.5947 5.25212 17.3374 5.1254 17.1458C5.07196 17.068 5.00636 16.8642 4.987 16.6603C4.96268 16.3544 4.99916 16.0122 4.97004 15.7307C4.9166 15.2622 4.88028 14.9443 4.92876 14.699C4.97724 14.4538 5.22988 13.7574 5.38524 13.204C5.48716 12.8496 5.42636 12.551 5.61324 12.2427C5.80012 11.937 5.91436 11.6675 5.95548 11.4806C6.00348 11.3107 5.46044 12.2282 5.46044 12.2282V12.2282H5.46108Z" fill="#F2E8B0"/>
<path fill-rule="evenodd" clip-rule="evenodd" d="M7.33745 11.9587C7.33745 11.9587 7.13361 12.0195 7.03649 12.1263C6.93937 12.2282 6.89809 12.3131 6.76705 12.4855C6.63601 12.6578 6.62865 12.7986 6.52177 13.0146C6.41505 13.2258 6.17953 13.5437 6.15041 13.6578C6.12129 13.7719 6.07281 14.3058 6.01217 14.5583C5.95873 14.8107 6.07281 15.1215 6.07281 15.1215L6.21105 15.0922C6.21105 15.0922 6.21105 15.2719 6.34945 15.3933C6.48769 15.5122 6.51201 14.9903 6.51201 14.9903L7.02897 13.2451L7.80801 12.716L7.89297 12.2888L7.33713 11.9587V11.9587H7.33745Z" fill="#F5EEC0"/>
<path fill-rule="evenodd" clip-rule="evenodd" d="M7.71594 12.7501C7.71594 12.7501 7.34938 12.7742 7.16986 12.9054C7.09706 12.9587 7.06794 13.0024 6.99034 13.068C6.84714 13.1869 6.70138 13.2962 6.63114 13.452C6.55338 13.6072 6.46842 13.8427 6.41018 14.2869C6.38586 14.4738 6.38586 14.6461 6.3689 14.7966C6.34458 15.0005 6.30826 15.163 6.32762 15.2766C6.35194 15.5096 6.59226 15.631 6.61562 15.8955L7.11322 15.6432L7.5817 13.796L8.5769 13.172L8.0137 12.541L7.7153 12.749V12.749L7.71594 12.7501Z" fill="#E6DB9D"/>
<path fill-rule="evenodd" clip-rule="evenodd" d="M5.09086 25.1886C5.09294 25.1704 5.09502 25.1522 5.0971 25.1334C5.16974 24.5094 5.18206 24.0365 5.23534 23.7403C5.31294 23.3205 5.36638 23.1643 5.35422 23.0072C5.33726 22.7549 5.3179 22.5704 5.34222 22.3762C5.37854 22.1189 5.63102 21.8131 5.62382 21.6019C5.61886 21.4344 5.5339 21.3253 5.4611 21.2234C5.3883 21.1214 5.33006 21.0365 5.33006 21.0365C5.33006 21.0365 5.82766 20.6942 5.82286 19.3155C5.83302 19.3184 5.8428 19.3225 5.85198 19.3277L6.0971 20.0242L6.26462 20.228L6.90782 21.427L7.7355 22.2306L8.9587 23.0533L9.72574 23.888L9.80334 26.1138L8.80094 27.4147L8.63678 27.712C7.33257 27.0573 6.13661 26.2062 5.0907 25.1885L5.09086 25.1886Z" fill="#E5CB7A"/>
<path fill-rule="evenodd" clip-rule="evenodd" d="M8.15295 27.3179C8.15295 27.3179 8.16991 27.0413 8.39807 26.8616C8.43455 26.9222 8.45871 26.9806 8.45151 27.0242C8.49279 26.9515 8.78159 26.4854 9.43455 26.364C10.0875 26.2451 10.2453 25.7694 10.2453 25.7694L11.631 24.5098L13.216 23.051L15.1432 22.3738L16.0438 22.1528C16.0438 22.1528 16.0608 22.2184 16.0269 22.364C16.1942 22.352 16.5656 22.267 16.9515 22.131C17.1069 22.0704 17.2526 22.0461 17.3302 22.1262C17.4443 22.233 17.4613 22.4854 17.4685 22.6358C17.6554 22.5946 17.8714 22.415 18.0445 22.432C18.3213 22.4611 18.5664 22.7864 18.848 22.7864C19.2194 22.7864 19.3867 22.5582 19.6466 22.3786C19.8019 22.2718 20.0251 22.1386 20.1514 22.0485C20.4523 21.8275 23.6368 20.8542 23.6368 20.8542L24.7533 20.927L24.933 22.1261L24.837 25.2605C24.8251 25.2718 24.8133 25.2837 24.8013 25.295L19.7248 27.9464L12.688 29.0251C11.1117 28.7676 9.5906 28.2444 8.18943 27.4778L8.15343 27.3178V27.3178L8.15295 27.3179Z" fill="#D8C173"/>
<path fill-rule="evenodd" clip-rule="evenodd" d="M5.51758 25.5874C5.61758 25.3782 5.7075 25.2034 5.72334 25.1408C5.73582 25.2669 5.7587 25.5435 5.80478 25.8376C5.70803 25.7554 5.6123 25.6719 5.51758 25.5872V25.5874Z" fill="#F1D789"/>
<path fill-rule="evenodd" clip-rule="evenodd" d="M10.6579 28.5371L11.5679 28.284L11.6455 28.3083C11.6455 28.3083 11.6868 28.3326 11.6868 28.415C11.8009 28.3496 11.898 28.3616 11.9684 28.3181C12.0047 28.3957 12.0411 28.653 12.2014 28.6845C12.3687 28.721 12.5484 28.6117 12.7305 28.4734C12.91 28.3302 13.1145 28.1506 13.2692 28.0778C13.326 28.1821 13.3763 28.2899 13.4198 28.4005C13.6236 28.2379 13.978 27.5778 14.4828 27.5898C14.6287 27.245 14.8725 26.9505 15.1839 26.7427C15.6524 26.4248 15.946 26.4005 16.3126 26.4296C16.4582 26.2405 16.6376 26.08 16.8417 25.9563C16.9023 25.9806 17.0699 26.0826 17.2787 25.9854C17.4899 25.8885 17.7276 25.5122 18.0407 25.4637C18.2095 25.4405 18.381 25.4765 18.5262 25.5656C18.5262 25.5656 19.4382 24.6602 20.0675 24.3592C20.0431 24.2864 19.9947 24.0122 20.7324 23.4053C20.7737 23.4418 20.7446 23.5437 20.7737 23.5493C20.7857 23.5493 20.9657 23.4717 21.1935 23.2968C21.4751 23.0858 21.8124 22.8648 22.0163 22.8042C22.4003 22.6901 22.8076 22.923 22.8076 22.923C22.8423 22.8987 22.8809 22.8807 22.9217 22.8696C23.0187 22.8526 23.0891 22.8405 23.1425 22.8216C23.1377 22.9478 23.2081 23.1638 23.1425 23.3507C23.2185 23.3935 23.299 23.4276 23.3825 23.4526C23.3414 23.5424 23.2515 23.7706 23.1011 23.8798C23.2271 23.9405 23.2441 24.0109 23.4238 24.0718C23.351 24.1738 23.2318 24.3486 23.1787 24.4558C23.1252 24.5699 22.9334 25.0432 22.8484 25.2227C22.7587 25.4024 22.6374 25.7325 22.579 25.7987C22.5206 25.865 22.3095 26.1458 22.147 26.284C22.291 26.2306 22.8801 26.051 23.13 25.983C23.0556 26.0922 22.6785 26.6517 22.3159 27.1898C18.8042 29.2946 14.5565 29.7863 10.6567 28.5395L10.6579 28.5371Z" fill="#E0CD81"/>
<path fill-rule="evenodd" clip-rule="evenodd" d="M7.77601 12.6845C7.77601 12.6845 7.56497 12.6845 7.52369 12.7136C7.48241 12.7427 7.73489 12.8035 7.81249 12.8327C7.89009 12.8618 8.05761 12.9952 8.10129 13.1021C8.14257 13.204 9.61825 13.7986 9.61825 13.7986L10.6619 13.7451L11.0218 13.248L10.3373 12.6485L10.8173 11.2335L10.1815 11.3354L8.65233 12.2474L7.88529 12.5411L7.77601 12.6845V12.6845Z" fill="#DFC57C"/>
<path fill-rule="evenodd" clip-rule="evenodd" d="M10.068 13.1529C10.0987 13.2027 10.1536 13.2322 10.212 13.2305C10.428 13.2305 10.6269 13.284 10.7095 13.3931C10.8479 13.568 11.2314 14.1262 11.2314 14.1262L12.1488 14.4563L12.208 13.376L11.2056 12.6795L10.0648 13.0993V13.1528H10.0674L10.068 13.1529Z" fill="#E5CC7C"/>
<path fill-rule="evenodd" clip-rule="evenodd" d="M9.88801 13.5534C9.88801 13.5534 10.0554 13.5656 10.2666 13.4878C10.4778 13.4101 10.8248 13.2427 10.9754 13.3083C11.1864 13.3981 11.1427 13.6797 11.3711 13.9323C11.5093 14.0877 11.7618 14.0829 11.905 14.2504C12.0482 14.4179 12.5408 14.3402 12.5408 14.3402L12.7277 15.3482L11.9778 16.3094L11.7325 17.5035H10.7184L9.79201 17.136L9.33569 16.032L9.56385 14.9155L9.88801 13.5534V13.5534Z" fill="#D2C281"/>
<path fill-rule="evenodd" clip-rule="evenodd" d="M11.8496 13.6019C11.8747 13.6097 11.9008 13.6137 11.9272 13.6141C11.898 13.6384 11.8372 13.6917 11.8616 13.8301C11.8859 13.9685 11.9635 14.1432 11.898 14.2499C11.9503 14.307 11.9892 14.375 12.0121 14.4489C12.0534 14.568 12.0656 14.6771 12.3348 14.6942C12.296 14.7181 12.2601 14.7467 12.2281 14.7792C12.2281 14.7792 12.415 14.9417 12.5097 15.0921C12.6067 15.088 12.864 15.008 12.864 15.008L12.9174 15.0445L13.0315 14.9965C13.0315 14.9965 12.9248 14.9552 13.0024 14.6955C13.0752 14.4673 13.1408 14.4795 13.1464 14.4625C13.152 14.4456 13.1998 14.2053 13.1998 14.1081C13.2361 13.9821 13.2652 13.5985 13.2652 13.5985L13.1876 12.7515L12.7508 12.4869L12.3956 12.144L12.0606 12.775L11.84 12.995L11.823 13.5411L11.8496 13.6019V13.6019Z" fill="#E2C270"/>
<path fill-rule="evenodd" clip-rule="evenodd" d="M12.9005 12.8933C12.9005 12.8933 12.9781 13.1141 13.0074 13.284C13.0177 13.251 13.0234 13.2167 13.0244 13.1821C13.0244 13.1821 13.085 13.5171 13.097 13.6555C13.1213 13.6505 13.145 13.6433 13.1504 13.6675C13.1559 13.6917 13.2112 13.9613 13.1984 14.1117C13.2995 13.9449 13.4394 13.8051 13.6061 13.704C13.7032 13.6432 13.8173 13.5777 13.9364 13.5728C14.1232 13.568 14.2591 13.6918 14.4824 13.6918C15.0212 13.6918 15.5092 13.2961 15.8684 13.1749C16.1328 13.0849 16.361 13.0195 16.5212 12.8737C16.5989 12.8083 16.7373 12.6627 16.8634 12.4465C17.0309 12.1585 17.2056 11.9078 17.3805 11.8763C17.3014 11.8908 17.2209 11.8965 17.1405 11.8933C17.1405 11.8933 17.194 11.8398 17.2845 11.767C17.3751 11.6942 17.4836 11.6045 17.6388 11.6045C17.9156 11.6045 18.0538 11.6456 18.2092 11.6456C18.3645 11.6408 18.4543 11.6045 18.4543 11.6045C18.4543 11.6045 18.617 11.7185 18.9834 11.7185C19.35 11.7233 19.5951 11.7549 19.7869 11.772C19.9788 11.7891 20.6218 11.7185 20.8063 11.724C20.9265 11.7286 21.0446 11.7575 21.1535 11.8089L20.5588 10.0809L18.4224 8.21375L17.1506 9.11423L15.1941 11.0705L13.301 11.772L12.9053 12.2161V12.8933H12.9005Z" fill="#CCB360"/>
<path fill-rule="evenodd" clip-rule="evenodd" d="M17.1481 11.9029C17.1481 11.9029 17.2016 11.8496 17.2912 11.7768C17.3808 11.704 17.4904 11.6141 17.6456 11.6141C17.9222 11.6141 18.0606 11.6554 18.216 11.6554C18.3713 11.6506 18.4611 11.6141 18.4611 11.6141C18.4611 11.6141 18.624 11.728 18.9902 11.728C19.3568 11.7328 19.6019 11.7643 19.7937 11.7813C19.9856 11.7982 20.6286 11.728 20.8131 11.7333C20.9333 11.7378 21.0514 11.7667 21.1601 11.8182L20.8907 11.039L20.5777 10.4445L19.6845 9.46625C19.6845 9.46625 18.6125 8.83521 18.6043 8.83041C18.5995 8.82561 18.2329 8.72849 18.2329 8.72849L17.2621 9.31585L16.3811 11.595L16.3641 12.075L16.9344 12.3445C17.0776 12.1045 17.2355 11.9125 17.3835 11.8882C17.2499 11.9027 17.148 11.9027 17.148 11.9027V11.9027L17.1481 11.9029Z" fill="#D5B457"/>
<path fill-rule="evenodd" clip-rule="evenodd" d="M17.136 12.0656C17.051 12.0704 16.9808 12.0534 16.9612 11.9928C16.8884 11.7889 16.8302 11.7598 16.7692 11.7598C16.7083 11.7598 16.626 11.8909 16.5772 11.9029C16.5284 11.9149 16.4705 11.7525 16.4705 11.7525L16.4171 11.7281C16.4171 11.7281 16.104 11.932 15.8832 12.1723C15.6624 12.4126 15.3006 12.8205 15.138 12.8931C14.9755 12.9657 14.4171 12.9902 14.226 13.0315C14.035 13.0728 13.8232 13.2112 13.794 13.2427C13.7649 13.2742 13.8792 13.3081 13.8961 13.3397C13.9131 13.3688 13.7091 13.3566 13.6921 13.3877C13.6801 13.412 13.7401 13.5502 13.7699 13.6206C13.822 13.5947 13.8791 13.5806 13.9372 13.5793C14.1241 13.5745 14.2601 13.6984 14.4833 13.6984C15.0222 13.6984 15.51 13.3027 15.8692 13.1813C16.1339 13.0915 16.362 13.0259 16.5222 12.8803C16.5998 12.8149 16.7382 12.6691 16.8644 12.4531C16.9566 12.3051 17.0465 12.1667 17.1364 12.0648V12.0648L17.136 12.0656Z" fill="#D2B257"/>
<path fill-rule="evenodd" clip-rule="evenodd" d="M9.40803 24.0777C9.40803 24.0777 9.36003 23.8981 8.91523 23.4345C8.78899 23.3035 8.71139 23.1945 8.62643 23.1166C8.41523 22.9174 8.29139 22.8641 8.14099 22.7501C7.81091 22.5049 7.45171 22.5049 7.17507 22.204C6.89843 21.903 6.57603 21.328 6.35203 20.7403C6.13123 20.1529 6.07043 19.9661 6.07043 19.9491C6.07043 19.9321 6.13123 19.8181 6.20883 19.835C6.28643 19.852 6.28643 20.0024 6.30595 20.0389C6.34462 20.0984 6.38847 20.1544 6.43699 20.2062C6.55107 20.3374 6.71363 20.4942 6.79619 20.7281C6.77923 20.5291 6.71123 20.3083 6.71123 20.3083C6.71123 20.3083 7.13843 20.5777 7.50243 20.8592C7.86899 21.1408 8.01939 21.2379 8.12643 21.4174C8.23347 21.5969 8.48563 22.0704 8.60643 22.2088C8.72723 22.3472 10.3824 22.8689 10.3824 22.8689L11.1698 23.456L11.5607 24.3128L11.2548 24.7928L10.6674 24.919L9.71347 24.4918L9.40803 24.0776V24.0776V24.0777Z" fill="#D2B159"/>
<path fill-rule="evenodd" clip-rule="evenodd" d="M7.28882 21.1263C7.28882 21.1263 7.48786 21.4442 7.9733 21.7451C8.41026 22.0098 9.10194 22.2501 9.71858 22.3933C10.0728 22.4783 10.4272 22.5437 10.7451 22.5487C11.6019 22.5607 12.1917 22.3157 12.9224 22.2355C13.3181 22.1943 13.8035 22.1627 14.3083 22.0435C14.9563 21.8882 15.3399 21.7133 15.8618 21.4675C16.2403 21.2928 16.5875 21.1618 16.869 20.9943C17.2647 20.7613 17.5535 20.5016 17.8885 20.424C17.8472 20.5381 17.8035 20.7419 17.4735 20.9531C17.6482 20.9482 17.8885 20.9362 17.8885 20.9362C17.8885 20.9362 17.6555 21.0744 17.2453 21.3851C16.9928 21.5771 16.6579 21.9021 16.3157 22.1181C16.0947 22.2565 15.8544 22.3581 15.6967 22.441C15.3127 22.6522 15.1578 22.7589 14.9055 23.017C14.9952 23.0122 15.0026 23.017 15.0026 23.017C15.0026 23.017 14.6845 23.0583 14.4565 23.1795C14.4085 23.1795 14.3253 23.1626 14.1797 23.2039C14.0656 23.2402 13.9151 23.3229 13.7599 23.3664C13.5389 23.432 13.4663 23.4029 13.4663 23.4029L13.5026 23.4757C13.5026 23.4757 13.2146 23.4707 13.1186 23.4805C13.1355 23.4853 13.1307 23.4927 13.1307 23.4927C13.1139 23.4955 13.0976 23.5012 13.0827 23.5096C13.0365 23.5395 12.9857 23.5617 12.9323 23.5751C12.9032 23.5799 12.8789 23.5799 12.8424 23.5872C12.8546 23.6163 12.9493 23.7792 12.993 23.8752C12.9567 23.8995 12.4104 24.3122 12.4104 24.3122C12.4274 24.3388 12.4412 24.3673 12.4517 24.3971C12.4687 24.4504 12.476 24.5282 12.493 24.5645C12.5341 24.6373 12.5584 24.6495 12.5584 24.6495C12.5584 24.6495 12.493 24.6616 12.3787 24.6907C12.2818 24.7151 12.1627 24.7562 11.9947 24.7805C11.9432 24.7872 11.8913 24.7913 11.8394 24.7927C11.8637 24.8461 11.9704 25.0499 11.7738 25.2853C11.5771 25.5207 11.5165 25.5549 11.4559 25.7053C11.4253 25.6822 11.3928 25.6619 11.3587 25.6445C11.2933 25.6154 11.2034 25.5719 11.1719 25.5135C11.1535 25.5913 11.1291 25.6675 11.0991 25.7416C11.0384 25.9042 10.9487 26.0645 10.9317 26.1858C10.8661 26.113 10.7448 25.9698 10.5773 25.9989C10.4098 26.028 10.2763 26.2562 10.2472 26.3218C10.2472 26.2805 10.2181 26.249 10.2109 26.2975C10.2059 26.3509 10.1138 26.909 9.59922 27.3605C9.59442 27.2464 9.59442 26.9939 9.58226 26.9115C9.53426 26.9595 9.47554 27.0304 9.12594 27.181C8.7837 27.3314 8.83794 27.4819 8.83794 27.4819C8.83794 27.4819 8.80882 27.2419 8.9933 26.9891C9.18018 26.7368 9.29426 26.6178 9.29426 26.5984C9.29124 26.5787 9.28282 26.5602 9.26994 26.545C9.24562 26.5207 9.19714 26.4915 9.19714 26.4722C9.22626 26.4602 9.51506 26.3218 9.4981 26.0352C9.48114 25.7781 9.37202 25.6445 9.29426 25.5499C9.28226 25.5378 9.4085 25.448 9.39138 25.4189C9.37922 25.4019 9.22402 25.2877 9.2045 25.2269C9.20909 25.1906 9.21723 25.1549 9.22882 25.1202C9.24578 25.0667 9.25794 25.0303 9.25314 24.9939C9.24098 24.9333 9.17538 24.7658 9.15602 24.7488C9.17298 24.7536 9.29426 24.7488 9.29426 24.7488C9.29426 24.7488 9.1973 24.5935 9.18018 24.5207C9.16306 24.4479 9.12674 24.256 9.10738 24.2197C9.14866 24.2245 9.25058 24.2317 9.25058 24.2197C9.25554 24.1832 9.16082 24.1226 9.20258 24.0757C9.2317 24.0805 9.28754 24.1048 9.34082 24.1728C9.3117 24.0951 9.26322 23.9447 9.16114 23.884C9.20914 23.8671 9.37234 23.8232 9.51554 23.9082C9.65874 23.9931 9.70754 24.112 9.70754 24.112C9.70754 24.112 9.7925 24.1776 9.9237 24.2747C10.0741 24.3936 10.2658 24.5627 10.5717 24.6824C10.6373 24.7189 10.8047 24.7189 10.9261 24.6946C10.979 24.682 11.0297 24.6615 11.0765 24.6339C11.0934 24.624 11.1113 24.6158 11.1299 24.6096C11.1038 24.5572 11.0738 24.5069 11.0402 24.4591C11.0815 24.4591 11.1299 24.464 11.1299 24.464C11.1299 24.464 11.1591 24.3984 11.028 24.272C11.0571 24.2429 11.0936 24.224 11.0936 24.1749C11.0523 24.1701 10.9795 24.1095 10.9626 24.0851C10.9867 24.0682 11.0232 24.0123 11.0645 23.9954C11.028 23.9663 10.9383 23.8448 10.897 23.8328C10.9364 23.8182 10.9746 23.8003 11.0111 23.7794C11.0111 23.7794 10.8072 23.7259 10.7416 23.6823C10.676 23.6343 10.5791 23.5512 10.5208 23.5269C10.46 23.5026 10.3533 23.4906 10.3096 23.4419C10.3507 23.4541 10.4163 23.4419 10.465 23.4419C10.5013 23.4419 10.5184 23.4467 10.5304 23.4467C10.5256 23.4298 10.5256 23.3933 10.6203 23.3813C10.6659 23.3744 10.7101 23.3605 10.7514 23.34C10.7514 23.34 10.6615 23.3352 10.5594 23.2381C10.4573 23.141 10.3725 23.0634 10.3143 23.0512C10.2536 23.0391 10.1395 23.0925 10.0691 23.0875C9.97202 23.0755 9.93074 23.0269 9.93074 23.0269C9.93074 23.0269 9.60802 23.056 8.89202 22.6192C8.27298 22.2405 8.00354 21.9056 8.00354 21.9056C7.94561 21.8846 7.88961 21.8586 7.83618 21.8279C7.60322 21.7066 7.28034 21.4541 7.2901 21.1239V21.1239L7.28882 21.1263Z" fill="#C2A44D"/>
<path fill-rule="evenodd" clip-rule="evenodd" d="M16.2184 6.55824C16.2746 6.57649 16.3245 6.61014 16.3624 6.65536C16.4765 6.7864 16.5493 7.03392 16.2896 7.29856C16.3915 7.33488 16.4336 7.34656 16.5226 7.33488C16.4328 7.44176 16.229 7.66992 16.2168 7.86896C16.2047 8.03152 16.3066 8.08016 16.3066 8.08016C16.3066 8.08016 16.1512 8.25968 16.144 8.56016C16.2174 8.47743 16.2977 8.4011 16.384 8.332C16.5637 8.1888 16.8112 8.02624 16.9787 7.92432C16.9765 7.96704 16.9822 8.00981 16.9957 8.0504C16.9957 8.0504 17.3087 7.79312 17.5717 7.90736C17.6906 7.9608 17.6371 8.12816 17.6371 8.12816C17.6371 8.12816 17.7999 8.06752 17.9139 8.1816C18.028 8.29568 18.1893 8.58992 18.272 8.704C18.3083 8.75744 18.4031 8.85936 18.5 9.01712C18.6325 9.23799 18.7431 9.47126 18.8303 9.7136C18.8351 9.58736 18.8666 9.39088 19.2259 9.51456C19.5851 9.6408 19.9928 9.90544 20.3351 10.4266C20.6773 10.9477 20.7621 11.536 20.9344 11.76C21.1091 11.976 21.2888 12.3352 21.301 12.4858C21.3131 12.6363 21.2475 13.1216 21.6067 14.4347C21.7087 14.027 21.864 13.1216 21.864 13.1216L21.949 12.323L22.0461 9.85216L19.4659 7.70864L17.449 6.24496L16.1359 6.3712L16.2183 6.55808V6.55808L16.2184 6.55824Z" fill="#CAA13E"/>
<path fill-rule="evenodd" clip-rule="evenodd" d="M21.0122 10.2353C21.0122 10.2353 20.9757 9.99534 20.369 9.58734C19.7621 9.18446 19.2888 9.18446 18.852 8.84222C18.517 8.57278 18.1675 7.95374 17.94 7.7499C17.7191 7.54846 17.6827 6.9659 17.6827 6.9659L18.4279 6.3419L19.536 4.74014L20.4728 3.70862L20.9218 4.33262L21.5458 5.06558L21.8928 6.53646L22.0191 8.68942L21.0111 10.2355L21.0122 10.2353Z" fill="#B59544"/>
<path fill-rule="evenodd" clip-rule="evenodd" d="M21.7623 12.816C21.7807 12.4895 21.7403 12.1624 21.6433 11.8501C21.4833 11.3525 21.1337 10.469 20.9713 10.1381C20.9057 9.77153 20.9543 9.74241 21.0247 9.70113C21.0951 9.65985 21.3597 9.50913 21.5047 8.98033C21.6497 8.45153 22.0994 8.43425 22.0994 8.43425L22.3761 8.23041L22.7961 9.28129L23.1625 10.2304L23.2765 10.9562L23.3615 11.575L23.1625 12.8834L22.1796 13.7717L21.7621 12.816V12.816H21.7623Z" fill="#C89D3A"/>
<path fill-rule="evenodd" clip-rule="evenodd" d="M8.04626 27.3983V27.3714C8.06669 27.3586 8.08472 27.3424 8.09954 27.3234C8.1165 27.2991 8.12882 27.2699 8.14082 27.2627C8.16514 27.2506 8.27922 27.2147 8.33986 27.2263C8.4005 27.2378 8.56082 27.3039 8.64578 27.2991C8.8205 27.2943 9.02434 27.1607 9.34722 27.2215C9.83266 27.3112 9.94674 27.6413 10.2283 27.8282C10.4203 27.9594 10.6191 27.901 10.6482 27.901H10.7136C10.7258 27.901 10.8155 27.7991 10.8642 27.804C10.9613 27.8088 10.9709 27.889 11.0315 27.8938C11.1747 27.9107 11.4515 27.821 11.5899 27.8575C11.6732 27.8836 11.7385 27.9487 11.7647 28.032C11.7938 28.1218 11.7695 28.2359 11.6991 28.3015C11.5487 28.4397 11.4055 28.5709 11.3763 28.6855C11.4134 28.7137 11.4489 28.7438 11.4829 28.7757C10.282 28.4697 9.12651 28.0071 8.04626 27.3997V27.3983Z" fill="#CEB052"/>
<path fill-rule="evenodd" clip-rule="evenodd" d="M20.9708 22.5486C20.9708 22.5486 21.3494 22.0438 21.4806 21.7938C21.6116 21.536 21.0655 18.272 21.0655 18.272L22.1627 14.6774L22.1334 13.5075C22.1334 13.5075 22.1868 12.4274 22.3131 11.9589C22.4636 12.2283 22.9321 12.5536 23.034 12.7259C23.082 12.3957 23.2451 11.6992 23.2209 10.9565C23.3107 11.0947 23.5267 12.4856 23.5267 12.4856L23.7427 13.4224L24.0243 14.4176L24.3374 15.4686L24.5243 16.1944L24.631 16.3691L24.7209 16.6749L24.8059 17.0051L25.051 17.7794L25.195 18.4152L25.3091 19.5682C25.3339 19.6564 25.3517 19.7465 25.3625 19.8376C25.3673 19.9638 25.3455 20.0366 25.3455 20.0586C25.3455 20.0805 25.3868 20.3352 25.3699 20.527C25.3455 20.719 25.3455 20.8693 25.195 21.007C25.0444 21.1448 24.9499 21.9682 24.9499 21.9682L24.6804 21.7886C24.6804 21.7886 24.7339 21.5434 24.6076 21.3202C24.4814 21.097 24.2363 21.0507 24.0979 21.0872C23.9596 21.1163 23.683 21.1598 23.5931 21.2376C23.5081 21.3152 23.2995 21.5555 23.1076 21.6648C22.8676 21.8088 22.4766 21.8202 22.2679 21.8686C22.0567 21.9166 21.8238 22.0606 21.5785 22.2278C21.3862 22.3524 21.1831 22.4594 20.9718 22.5478V22.5478L20.9708 22.5486Z" fill="#CCA847"/>
<path fill-rule="evenodd" clip-rule="evenodd" d="M20.9708 27.852C20.9708 27.852 20.9868 27.8624 21.0177 27.8794C22.7421 27.0715 24.2872 25.9263 25.5617 24.5114C25.5478 24.0202 25.5297 23.5167 25.5099 23.3301C25.4687 22.9344 25.4979 22.5315 25.4857 22.2986C25.4735 22.0656 25.3425 21.1165 25.2819 20.8714C25.2163 20.6263 25.0899 20.5048 25.0707 20.5048C25.0537 20.5098 24.9516 20.9661 24.9516 21.0808C24.9516 21.1955 24.9273 21.4717 24.9273 21.5421C24.9103 21.5371 24.9031 21.4941 24.9031 21.4765C24.8788 21.5371 24.8497 21.644 24.8375 21.6562C24.8254 21.6683 24.8545 21.5543 24.8375 21.5299C24.8206 21.5056 24.7895 21.5178 24.7963 21.4571C24.7991 21.4212 24.8048 21.3855 24.8132 21.3504C24.8132 21.3504 24.7404 21.4571 24.6871 21.729C24.6337 21.9984 24.6337 22.0058 24.6143 22.0299C24.5974 22.0592 24.5003 22.1562 24.4953 22.1927C24.4905 22.2581 24.5852 22.3237 24.5924 22.36C24.5972 22.4208 24.5075 22.7023 24.4783 22.84C24.4492 22.9778 24.4614 23.2477 24.4303 23.3861C24.406 23.5123 24.3823 23.5851 24.2993 23.6384C24.3599 23.6506 24.4182 23.6675 24.4182 23.6675C24.4182 23.6675 24.5031 24.0267 24.2871 24.3327C24.2095 24.4394 24.1902 24.488 24.1076 24.5851C23.9449 24.7647 23.8187 24.9691 23.8065 25.1021C23.7981 25.0629 23.7924 25.0231 23.7895 24.9831C23.7895 24.9831 23.5372 25.2768 23.4303 25.4443C23.2921 25.6603 23.1003 25.6482 23.0463 25.7016C22.9924 25.7551 22.9807 25.852 22.9983 25.9298C22.9503 25.9418 22.8601 25.9589 22.7993 26.1458C22.7702 26.2427 22.6974 26.3378 22.5833 26.4031C22.4692 26.4683 22.3308 26.488 22.2604 26.505C22.3211 26.5219 22.3454 26.5219 22.3745 26.5413C22.3382 26.6019 22.1707 26.6967 21.9838 26.8181C21.7969 26.9322 21.707 27.0995 21.6609 27.2088C21.6129 27.3107 21.542 27.3763 21.4279 27.3885C21.4759 27.4176 21.547 27.4855 21.5833 27.5074C21.5299 27.5195 21.4393 27.5195 21.2775 27.6579C21.1076 27.7987 21.0494 27.84 20.9716 27.8522V27.8522L20.9708 27.852Z" fill="#C39D3C"/>
<path fill-rule="evenodd" clip-rule="evenodd" d="M17.5936 28.9768C17.6865 28.9117 17.7872 28.8583 17.8933 28.8179C18.2718 28.6675 18.6723 28.6384 18.8301 28.5899C18.9806 28.5419 19.0995 28.4757 19.2864 28.4394C19.2814 28.4819 19.2773 28.5219 19.2728 28.5597C18.7218 28.7329 18.1608 28.8722 17.5928 28.9768H17.5936Z" fill="#D2BA6B"/>
<path fill-rule="evenodd" clip-rule="evenodd" d="M24.576 19.0195C24.576 19.0195 24.4984 19.4393 24.36 19.704C24.2216 19.9686 24.0719 20.335 24.0719 20.335C24.0729 20.2525 24.0826 20.1702 24.1011 20.0897C23.9263 20.1917 23.5016 20.4369 23.3811 20.5461C23.267 20.648 23.0752 20.8277 23.0267 20.9126C23.1408 20.5777 23.2596 20.2768 23.2792 20.1384C23.1044 20.2646 22.2888 20.9369 21.8641 21.3811L20.5412 22.4515C20.3886 22.5339 20.2314 22.6075 20.0704 22.672C19.8424 22.7689 19.5729 22.8515 19.3739 22.9293C19.4273 22.7861 19.5121 22.6597 19.6312 22.5384C19.7574 22.4195 20.136 22.0093 20.1942 21.8184C20.2476 21.6193 20.2598 21.5005 20.1894 21.3329C20.1238 21.3499 19.9734 21.3573 19.8715 21.3864C19.7696 21.4155 19.6603 21.5246 19.6603 21.5246C19.6603 21.5246 19.7379 21.0805 19.9054 20.6606C19.7792 20.6654 19.5632 20.7017 19.5632 20.7017C19.5632 20.7017 19.8641 20.1969 20.3792 19.8451C20.2214 19.8787 20.0671 19.9266 19.918 19.9881C19.6171 20.1144 19.287 20.3013 19.0419 20.4032C19.1801 20.2112 20.151 18.8256 20.7288 17.5342C21.3048 16.2454 21.52 15.9153 21.6462 15.2237C21.7116 14.8814 21.6942 14.3757 21.7116 13.9227C21.7286 13.4736 21.7844 13.0707 21.7481 12.8013C21.8985 12.9881 22.4617 13.5149 22.4811 14.6921C22.498 15.8693 21.9424 17.4592 21.3524 18.3158C21.4964 18.3571 21.8696 18.4057 22.2529 17.7398C22.6363 17.0739 22.6316 16.888 22.77 16.6112C22.787 16.7496 22.782 16.7981 22.782 16.7981C22.782 16.7981 23.3404 16.1209 23.6049 15.2689C23.6583 15.6355 23.8161 15.9584 23.5684 16.6307C23.3476 17.2374 23.0588 17.3856 23.0588 17.3856C23.0588 17.3856 23.202 17.3613 23.4131 17.235C23.4496 17.3248 23.4424 17.427 23.503 17.4632C23.5636 17.4993 23.6462 17.5603 23.6583 17.6185C23.7238 17.5214 23.8257 17.3976 23.8574 17.3054C23.8331 17.4974 23.8161 18.3369 23.9054 18.7641C24.0924 18.7472 24.2841 18.735 24.4152 18.3976C24.3254 18.7278 24.3254 18.9267 24.386 19.2083C24.4856 19.1405 24.5753 19.019 24.5753 19.019V19.019L24.576 19.0195Z" fill="#C0993A"/>
<path fill-rule="evenodd" clip-rule="evenodd" d="M18.2695 5.64081C18.2695 5.64081 18.0826 5.71841 17.7647 5.71841C17.488 5.71841 17.5656 5.61169 17.1336 5.61169C16.4687 5.61169 14.1458 5.99569 13.7379 5.99025C13.4733 5.98545 14.6311 6.10433 14.6311 6.10433L17.5899 6.14561L18.1845 6.09761L18.4055 5.64801L18.2695 5.64081Z" fill="#A88F33"/>
<path fill-rule="evenodd" clip-rule="evenodd" d="M10.5971 11.4248C10.5971 11.4248 10.2183 11.7136 10.0582 11.9345C9.89802 12.1555 9.81306 12.3009 9.63098 12.4806C9.67372 12.4823 9.71643 12.4765 9.75722 12.4637C9.75722 12.4637 9.75722 12.5117 9.7281 12.5243C9.77907 12.5186 9.82988 12.5362 9.86634 12.5723C9.8129 12.6014 9.6673 12.7472 9.78138 12.9195C9.86634 13.0505 10.046 13.0625 10.046 13.0625C10.046 13.0625 10.0047 13.1816 10.1771 13.1694C10.5484 13.1525 10.9635 12.9897 11.1551 13.031C11.3471 13.079 11.4563 13.0966 11.5921 13.3321C11.7361 13.5651 11.8615 13.6016 11.8615 13.6016C11.8615 13.6016 11.9465 13.3854 11.9271 13.0627C11.9968 12.8887 12.0354 12.7039 12.0412 12.5166L11.915 11.587L11.3641 10.8904L10.6505 11.2861L10.5971 11.4243V11.4248Z" fill="#E3C571"/>
<path fill-rule="evenodd" clip-rule="evenodd" d="M11.2743 11.2864C11.2743 11.2864 11.3277 11.4126 11.5511 11.4246C11.5268 11.4781 11.5268 11.4854 11.5341 11.5266C11.5389 11.5678 11.5461 11.6285 11.5461 11.6285C11.5707 11.6166 11.5929 11.6003 11.6117 11.5805C11.6239 11.6339 11.5996 11.7187 11.6117 11.7795C11.6192 11.8165 11.6314 11.8524 11.6481 11.8862C11.6516 11.8779 11.6557 11.8699 11.6602 11.8621C11.665 11.8499 11.7082 11.9931 11.8277 12.1021C11.8276 12.0853 11.8318 12.0688 11.8397 12.0541C11.8416 12.0845 11.8516 12.1139 11.8689 12.139C11.8599 12.1348 11.8517 12.129 11.8447 12.1221C11.8447 12.1221 11.8567 12.5061 11.9223 12.7046C11.9333 12.6918 11.943 12.678 11.9514 12.6634C11.9514 12.6514 11.9466 12.7702 11.9345 12.8554C11.9175 12.9403 11.9297 13.0592 11.9297 13.0592C11.9734 13.0247 12.0215 12.9962 12.0727 12.9742C12.1455 12.945 12.2647 12.8552 12.3373 12.6562C12.3795 12.5434 12.412 12.4273 12.4345 12.3091C12.4579 12.3543 12.4741 12.4029 12.4825 12.4531C12.4874 12.5138 12.6015 12.4822 12.6015 12.4822L12.6258 12.2176L12.7698 11.6181L12.9009 11.2467L13.5319 10.2638L14.6721 9.38576L15.6673 9.61392L16.5069 8.47312L15.0604 7.60416L13.6914 7.74736L12.449 9.46816L11.454 11.029L11.2743 11.2862V11.2862L11.2743 11.2864Z" fill="#D8B65B"/>
<path fill-rule="evenodd" clip-rule="evenodd" d="M18.4441 8.79617C18.4441 8.79617 18.3592 8.81313 18.1141 8.94017C17.8689 9.06721 17.699 9.10753 17.6043 9.29441C17.5096 9.48129 17.5024 9.62945 17.5024 9.62945C17.5024 9.62945 17.6699 9.55665 17.767 9.53233C17.8689 9.50817 17.983 9.51537 17.9709 9.55665C17.9592 9.58496 17.943 9.61117 17.9229 9.63425C17.9229 9.63425 18.1149 9.62945 18.1097 9.72417C18.1046 9.81889 18.0734 9.92321 18.0371 9.96929C18.0006 10.0173 17.8502 10.0883 17.8333 10.1442C17.792 10.2583 17.8502 10.2631 17.8283 10.3552C17.8113 10.4451 17.7313 10.6199 17.4691 10.9256C17.1997 11.2315 17.0851 11.4475 17.0851 11.4475C17.0851 11.4475 16.9541 11.2024 16.8861 10.9912C16.8381 11.0154 16.5803 11.1586 16.5803 11.1586L15.9832 9.07857L15.9952 8.94017C15.9952 8.94017 16.0486 8.87473 16.0608 8.75329C15.971 8.72417 15.9589 8.69985 15.8398 8.58593C15.7208 8.47201 15.6238 8.33345 15.4249 8.23873C15.3958 8.18529 15.3593 8.11265 15.2137 8.08337C15.0681 8.05409 14.9808 8.03009 14.9808 8.03009C14.9808 8.03009 15.0584 8.00081 15.0949 7.94017C15.0049 7.95233 14.9323 7.98145 14.7357 7.97665C14.5366 7.97169 14.5147 7.96449 14.4056 7.98145C14.2965 7.99841 14.1656 8.04705 14.1168 7.87953C14.0633 7.83825 13.9493 7.87473 13.8521 8.01777C13.755 8.16081 13.7211 8.27505 13.5342 8.33089C13.5211 8.41327 13.4922 8.49235 13.4493 8.56385C13.3958 8.65377 13.3109 8.74353 13.1968 8.87697C13.0171 9.08817 13.0462 9.43521 12.7598 9.69985C12.471 9.96433 12.8078 8.96673 12.8078 8.96673L13.2689 7.86273L14.5821 6.57873L16.6209 6.44049L16.82 7.49649L17.8152 7.83873L18.4438 8.79745V8.79745L18.4441 8.79617Z" fill="#D3AE4D"/>
<path fill-rule="evenodd" clip-rule="evenodd" d="M18.7671 9.02914L17.9103 7.79378L17.3108 7.3325C17.3108 7.3325 16.8836 6.54626 16.8544 6.52194C16.8301 6.50498 16.4272 6.4613 16.17 6.44434L16.218 6.56322C16.2741 6.58146 16.324 6.61511 16.362 6.66034C16.476 6.79138 16.5488 7.0389 16.2892 7.30354C16.3911 7.33986 16.4332 7.35154 16.5221 7.33986C16.4324 7.44674 16.2285 7.6749 16.2164 7.87394C16.2042 8.0365 16.3061 8.08498 16.3061 8.08498C16.3061 8.08498 16.1508 8.26466 16.1436 8.56498C16.2169 8.48224 16.2972 8.40591 16.3836 8.33682C16.5632 8.19282 16.8108 8.0309 16.9783 7.92898C16.976 7.97175 16.9817 8.01457 16.9952 8.05522C16.9952 8.05522 17.3082 7.79794 17.5712 7.91202C17.6901 7.96546 17.6367 8.13298 17.6367 8.13298C17.6367 8.13298 17.7994 8.07234 17.9135 8.18642C18.0276 8.3005 18.1901 8.5941 18.2727 8.70834C18.309 8.76178 18.4037 8.8637 18.5007 9.0213C18.6332 9.24221 18.7438 9.47553 18.8309 9.71794C18.8357 9.62082 18.8552 9.48498 19.0229 9.48498L18.768 9.02866L18.7671 9.02914Z" fill="#CAA13E"/>
<path fill-rule="evenodd" clip-rule="evenodd" d="M5.92246 12.5389C5.92246 12.5389 5.86182 12.3883 5.92246 12.0947C5.9831 11.8011 6.07782 11.6627 6.10934 11.2307C6.14086 10.7987 6.42246 10.2598 6.42246 10.2598L7.2015 9.90558L7.75254 10.056L7.9151 10.7939L7.21846 11.1779C7.21846 11.1779 7.18214 11.3405 6.9855 11.4715C6.78886 11.6025 6.51702 11.7045 6.45158 11.8381C6.41246 11.9199 6.38391 12.0063 6.36662 12.0953C6.36662 12.0953 6.16758 12.0541 6.0487 12.1851C5.92246 12.3187 5.92726 12.4376 5.92246 12.5395V12.5389Z" fill="#F4EFC8"/>
<path fill-rule="evenodd" clip-rule="evenodd" d="M7.49515 12.3422C7.49515 12.3422 7.42955 12.3835 7.38107 12.4862C7.33307 12.4086 7.21835 11.9474 7.21355 11.5323C7.20875 11.1173 7.18395 11.0144 7.27995 10.8714C7.37595 10.7283 7.75243 10.5776 7.69899 10.32C7.64555 10.0749 7.42219 9.97296 7.14795 10.0434C6.95595 10.0914 6.81307 10.4997 6.61403 10.7035C6.46347 10.8589 6.28395 10.8346 6.23547 10.9195C6.16987 11.0336 6.23051 11.1477 6.21115 11.2205C6.20619 11.2448 6.14555 11.3758 6.03627 11.5336C5.81547 11.8515 5.44171 12.3006 5.39307 12.7035C5.41003 12.4754 5.39803 12.4706 5.45867 12.2181L5.42219 12.1574L5.66219 11.371L5.81755 10.723L6.16475 9.63792L6.77627 8.5288L7.37099 7.86368L7.98987 7.90496L8.06267 8.83456L8.41707 10.5798L9.16219 11.4973L7.96795 12.301L7.49467 12.3422V12.3422H7.49515Z" fill="#EBCC73"/>
<path fill-rule="evenodd" clip-rule="evenodd" d="M7.86654 12.672C7.86654 12.672 7.76462 12.6963 7.72814 12.6769C7.69166 12.6576 7.6555 12.6357 7.6675 12.6113C7.6795 12.587 7.7451 12.5459 7.7451 12.5264C7.7479 12.4897 7.72104 12.4575 7.68446 12.4536C7.62862 12.4464 7.61166 12.4827 7.61166 12.4827C7.61166 12.4827 7.55822 12.4416 7.5147 12.4347C7.54045 12.4316 7.56636 12.4299 7.5923 12.4297C7.52523 12.3994 7.45408 12.3789 7.3811 12.3691C7.44174 12.3328 7.56078 12.2259 7.63838 12.2259C7.71598 12.2259 7.76462 12.2139 7.75246 12.1726C7.7403 12.1313 7.67966 12.0707 7.61422 12.0464C7.63838 12.0173 7.6555 11.9736 7.59726 11.8544C7.53646 11.7355 7.56078 11.6553 7.5803 11.6264C7.59726 11.5899 7.6579 11.5245 7.68702 11.4832C7.71614 11.4419 7.74046 11.3861 7.78894 11.3569C7.81326 11.34 7.89086 11.3089 7.96862 11.2793C8.05358 11.2502 8.12398 11.2137 8.17246 11.2502C8.2259 11.2865 8.20158 11.3352 8.20158 11.3352C8.20158 11.3352 8.3691 11.2744 8.5195 11.3521C8.67006 11.4248 9.03662 11.471 9.03662 11.471L9.16798 11.7357L8.29902 12.4808L7.93982 12.6605L7.86702 12.6725V12.6725L7.86654 12.672Z" fill="#E5C66B"/>
<path fill-rule="evenodd" clip-rule="evenodd" d="M9.07282 11.4539C9.07282 11.4539 8.80338 11.6336 8.74274 11.699C8.77906 11.704 8.8397 11.7283 8.81538 11.7646C8.78626 11.801 8.61154 11.9272 8.51442 12.0462C8.4125 12.1651 8.31538 12.3157 8.28146 12.3885C8.24514 12.4539 7.96834 12.6458 7.87378 12.6699C8.07282 12.6699 8.4733 12.4248 8.6237 12.4248C8.6189 12.4976 8.66498 12.5802 8.74994 12.5874C8.8349 12.5946 9.08002 12.6408 9.4101 12.437C9.74018 12.2379 9.63106 12.0898 9.7693 11.9928C10.0339 11.8179 10.1407 11.6626 10.2863 11.5656C10.4319 11.4686 10.5072 11.4466 10.5072 11.4466C10.5072 11.4466 10.512 11.3738 10.5552 11.3811C10.5793 11.3839 10.5999 11.3998 10.6087 11.4224C10.6087 11.4224 10.8611 11.2427 11.1847 11.1942C11.1771 11.1909 11.1711 11.1848 11.1677 11.1773C11.1677 11.1773 11.1919 11.1651 11.1968 11.153C11.1968 11.153 11.2138 11.1286 11.2259 11.1408C11.2381 11.153 11.2551 11.2427 11.2794 11.2792C11.3328 11.2549 11.4347 11.0267 11.4347 11.0267L11.68 10.3253V9.68448L11.488 9.72096L10.048 10.3325L9.1741 11.2379L9.07218 11.4539H9.07282Z" fill="#E6BD62"/>
<path fill-rule="evenodd" clip-rule="evenodd" d="M13.2184 8.3107C13.2963 8.2918 13.3709 8.2615 13.44 8.22078C13.4109 8.29854 13.4109 8.3835 13.2846 8.56798C13.1584 8.75246 13.1536 8.77918 13.0517 8.97086C12.9497 9.1699 12.9376 9.4563 12.8405 9.58238C12.884 9.56123 12.9307 9.54734 12.9787 9.54126C12.9787 9.54126 12.8817 9.62622 12.8405 9.71598C12.7992 9.80574 12.7264 9.99262 12.5469 10.1069C12.3673 10.2211 12.139 10.2937 11.8939 10.5632C11.6486 10.8277 11.3963 11.1627 11.2699 11.2832C11.3355 11.1691 11.4253 10.9409 11.4496 10.7905C11.4739 10.6401 11.4446 10.4603 11.4859 10.2614C11.5272 10.0625 11.5272 9.91918 11.7259 9.57198C11.9246 9.22478 12.2648 8.01854 12.2648 8.01854L12.9977 7.78558L13.2187 8.3099V8.3099L13.2184 8.3107Z" fill="#B6933F"/>
<path fill-rule="evenodd" clip-rule="evenodd" d="M12.6892 7.86657C12.6892 7.86657 12.4684 8.18449 12.4078 8.46609C12.3472 8.74769 12.4028 8.72337 12.3665 8.86177C12.3448 8.94615 12.3448 9.03466 12.3665 9.11905C12.443 8.99585 12.5477 8.89264 12.672 8.81793C12.8808 8.69185 13.0507 8.60193 13.152 8.49521C13.2539 8.38113 13.3388 8.19425 13.5596 8.05105C13.4699 8.03889 13.3436 7.99761 13.3196 8.00305C13.4096 7.90113 13.6788 7.74577 13.9507 7.55889C14.2201 7.36689 14.2032 7.28945 14.6401 7.09777C14.4969 7.12209 14.4289 7.08561 14.3099 7.09777C14.3579 6.99585 14.5259 6.94721 14.6939 6.77985C14.8619 6.61249 14.5872 6.36481 14.5872 6.36481L13.3072 7.13905L12.6883 7.86721L12.6892 7.86657Z" fill="#C49937"/>
<path fill-rule="evenodd" clip-rule="evenodd" d="M9.21594 7.28881L9.24506 7.05585L9.61162 6.46849L9.99514 5.43697V4.02673L9.96602 3.21121L10.0267 2.67713L10.0727 2.50737L10.1214 2.44177L10.4343 2.60433L10.8665 3.19169L10.9078 4.32529L10.4878 6.11409L9.28874 7.42241L9.21594 7.28881V7.28881Z" fill="#DFC068"/>
<path fill-rule="evenodd" clip-rule="evenodd" d="M10.1699 2.37616C10.1699 2.37616 9.9779 2.38112 9.93694 3.17968C9.89598 3.97824 9.87614 4.39808 9.84702 4.79376C9.8179 5.18944 9.75006 5.4296 9.71598 5.66272C9.6819 5.89584 9.66254 6.2136 9.55342 6.40784C9.50542 6.4976 9.40286 6.7792 9.16254 6.9904C8.8931 7.22336 8.49054 7.38608 8.42958 7.39824C8.3227 7.4224 7.78142 7.47584 7.56062 7.59728C7.48302 7.63856 7.34942 7.68704 7.20142 7.82544C6.90766 8.08992 6.51694 8.5632 6.23534 9.1336C5.80334 9.9856 5.37134 12.3909 5.37134 12.3909L5.46846 12.2283C5.46846 12.2283 5.48062 12.0123 5.69662 11.6336C5.90782 11.255 5.84718 10.8302 6.14078 10.1045C6.25486 9.82784 6.39806 9.46864 6.57278 9.16272C6.84958 8.66512 7.18446 8.23792 7.5219 8.00496C8.07278 7.6264 8.67966 7.54384 8.67966 7.54384L9.33262 7.11184C9.33262 7.11184 9.4467 6.89104 9.59726 6.63856C9.8083 6.28432 10.0773 5.88864 10.136 5.31344C10.2259 4.46144 10.0097 3.9032 10.0219 3.3984C10.0341 2.8936 10.0389 2.52224 10.1409 2.43232C10.243 2.3424 10.1701 2.37648 10.1701 2.37648V2.37648L10.1699 2.37616Z" fill="#A88F33"/>
<path fill-rule="evenodd" clip-rule="evenodd" d="M10.1699 6.18688C10.1699 6.18688 10.4579 5.47808 10.5897 4.84944C10.614 4.7232 10.6625 4.59712 10.6747 4.4952C10.7353 3.90048 10.7523 3.65536 10.6747 3.33008C10.614 3.09008 10.3811 2.87376 10.2596 2.70608C10.1408 2.5312 10.0849 2.46608 10.1092 2.42928C10.1336 2.39248 10.2281 2.33232 10.3203 2.33952C10.5183 2.34528 10.7052 2.43204 10.8374 2.57952C11.0243 2.79552 11.1723 3.52864 11.1723 3.52864L11.328 4.496L11.7236 5.7144L10.1702 6.18784V6.18784L10.1699 6.18688Z" fill="#C99E3D"/>
<path fill-rule="evenodd" clip-rule="evenodd" d="M12.8761 5.44913C12.8761 5.44913 12.8227 5.47329 12.7257 5.44913C12.7341 5.52992 12.6966 5.60863 12.6286 5.65297C12.5267 5.61169 11.5726 5.69425 11.5726 5.69425C11.5726 5.69425 11.1284 5.61649 10.99 5.02913C10.8931 4.63825 11.0628 4.09953 11.007 3.74513C10.922 3.22321 10.8032 3.12113 10.791 2.95873C10.7788 2.79633 10.7667 2.75489 10.7667 2.65297C10.7132 2.64081 10.6817 2.62385 10.6284 2.62385C10.6163 2.57585 10.6404 2.53393 10.5872 2.44897C10.6163 2.46113 10.8153 2.48545 11.0483 2.70625C11.2403 2.88593 11.2403 2.95137 11.2692 2.98785C11.3056 3.02417 11.5993 3.27585 11.7256 3.52673C11.8518 3.77761 12.0969 4.57761 12.1528 4.70865C12.1697 4.76209 12.2062 4.81553 12.2968 4.93681C12.4376 5.11169 12.6438 5.40081 12.8768 5.44881V5.44881L12.8761 5.44913Z" fill="#B58634"/>
<path fill-rule="evenodd" clip-rule="evenodd" d="M11.3035 3C11.4505 3.23752 11.5826 3.48397 11.699 3.73792C11.8422 4.06064 11.9271 4.32528 12.1068 4.54128C12.0097 4.25984 11.8374 3.7064 11.7355 3.50976C11.6214 3.30176 11.3884 3.07776 11.3035 3.00016V3.00016V3Z" fill="#A88F33"/>
<path fill-rule="evenodd" clip-rule="evenodd" d="M9.65292 6.99039C9.65292 6.99039 9.4078 7.05103 8.95148 7.29135C8.80092 7.36895 8.65788 7.43439 8.51948 7.49519C8.15996 7.65775 7.77436 7.80799 7.46844 7.89087C7.49276 7.91999 7.50476 7.93199 7.50476 7.93199C7.50476 7.93199 7.50476 8.05103 7.57036 8.11887C7.53404 8.15535 7.04844 8.48543 7.1918 9.58975C7.28876 9.55343 7.40284 9.50479 7.4198 9.50479C7.44908 9.50975 7.45628 9.58975 7.4926 9.58975C7.52892 9.58975 7.64796 9.54175 7.7742 9.37855C7.7694 9.44415 7.6966 10.1043 8.08732 10.5485C8.16012 10.4635 8.3446 10.1819 8.3446 10.1819L8.3494 10.0922C8.3494 10.0922 8.36636 9.77903 8.46844 9.49263C8.57052 9.20623 8.7694 8.99503 8.7694 8.99503L9.80796 7.51199L9.6526 6.99023V6.99023L9.65292 6.99039Z" fill="#E6C367"/>
<path fill-rule="evenodd" clip-rule="evenodd" d="M8.68205 9.16799C8.6345 9.20159 8.58212 9.22776 8.52669 9.24559C8.50973 9.18495 8.48541 8.97615 8.62861 8.77231C8.79613 8.52703 9.16253 8.20911 9.26445 7.95631C9.33005 7.79359 9.30093 7.38591 9.88349 6.86399C10.4661 6.34207 10.6941 6.16255 10.6941 6.16255L11.6358 5.68927L12.7936 6.14559L12.2184 8.39999L11.7718 9.45599L9.99581 9.12111L8.68189 9.16799V9.16799H8.68205Z" fill="#DCBA5A"/>
<path fill-rule="evenodd" clip-rule="evenodd" d="M9.35999 8.55585L9.58095 8.27921V8.08257C9.58095 8.08257 9.82607 8.01697 10.0905 7.74753C10.355 7.47809 10.7216 6.96113 11.0445 6.99265C11.3673 7.02913 11.3989 7.69409 11.411 7.88113C11.4232 8.06817 11.4645 8.49265 11.5299 8.72097C11.6027 8.94913 10.7435 9.81313 10.7435 9.81313L10.16 10.2573L9.35999 8.55585V8.55585Z" fill="#E9CE77"/>
<path fill-rule="evenodd" clip-rule="evenodd" d="M10.0437 10.8592C10.0437 10.8592 10.2234 10.5776 10.0917 10.517C10.1693 10.3422 10.3125 10.1578 10.3125 10.1578C10.3125 10.1578 10.4144 9.90544 10.7445 9.59472C11.0746 9.284 11.2786 9.0776 11.332 8.86896C11.365 8.73298 11.3829 8.5938 11.3855 8.45392C11.4211 8.48307 11.4593 8.50904 11.4995 8.53152C11.553 8.55584 11.8053 8.76448 11.769 9.18448C11.7327 9.60448 11.577 9.7792 11.577 9.7792C11.577 9.7792 11.4266 9.9296 11.3199 10.0074C11.2056 10.085 11.1645 10.1747 10.9727 10.1821C10.9924 10.1664 11.0145 10.1541 11.0383 10.1456C11.0383 10.1456 10.8392 10.1214 10.7323 10.2184C10.6255 10.3154 10.3983 10.6141 10.2842 10.704C10.1701 10.7768 10.0442 10.8594 10.0442 10.8594V10.8594L10.0437 10.8592Z" fill="#CDAE50"/>
<path fill-rule="evenodd" clip-rule="evenodd" d="M18.114 6.13824C17.8273 6.03373 17.5259 5.97477 17.2209 5.96352C16.7111 5.94656 15.966 5.97568 15.2355 5.98048C14.4491 5.98528 13.7355 5.71104 12.7452 5.66256C12.5827 5.56544 12.1692 5.14064 10.8787 6.04112C10.9563 6.03632 11.8156 5.84208 12.114 6.216C12.415 6.58736 12.33 7.2184 12.2889 7.3688C12.2111 7.70384 11.9587 8.19168 11.8569 8.53392C11.7551 8.87616 11.7791 9.056 11.7063 9.296C11.6335 9.536 11.4734 9.6552 11.5679 9.93184C11.6942 9.85424 11.7599 9.85424 11.9708 9.38096C12.1817 8.90768 12.1383 8.57024 12.4879 8.16976C12.8302 7.76688 13.3999 7.21584 13.6166 7.07744C13.8332 6.93904 15.5534 6.04592 17.3545 6.89792C17.7889 6.85184 18.1142 6.13808 18.1142 6.13808V6.13808L18.114 6.13824Z" fill="#D2A83E"/>
<path fill-rule="evenodd" clip-rule="evenodd" d="M11.6043 5.808C11.6025 5.78976 11.5985 5.77181 11.5923 5.75456C11.5755 5.71906 11.5534 5.68632 11.5267 5.65744C11.5267 5.65744 11.0995 5.57984 10.8835 5.604C10.5048 5.64528 10.1626 6.11376 10.0024 6.35408C9.84223 6.5944 9.64319 6.9656 9.42719 7.15744C9.42956 7.13875 9.42525 7.11982 9.41503 7.104C9.41503 7.104 9.42719 7.12096 9.40303 7.14528C9.37887 7.1696 9.37871 7.1816 9.39087 7.19328L9.42735 7.2296C9.43935 7.2296 9.77439 7.07904 10.2307 6.6536C10.7162 6.20944 11.0875 5.9816 11.2818 5.90352C11.3853 5.8595 11.4936 5.82745 11.6045 5.808V5.808H11.6043Z" fill="#C29637"/>
<path fill-rule="evenodd" clip-rule="evenodd" d="M19.8909 3.98303C19.8909 3.98303 19.8132 4.07999 19.716 4.18687C19.5 4.41503 19.2184 4.67215 18.9781 4.93679C18.7501 5.18927 18.4928 5.38591 18.2039 5.71599C17.9149 6.04607 17.5799 6.41247 17.4951 6.51935C17.4175 6.62623 17.3568 6.80095 17.3568 6.89071C17.3156 6.86159 17.2671 6.83007 17.2671 6.83007C17.2875 6.86818 17.3119 6.90401 17.3399 6.93695C17.4005 7.02191 17.4951 7.12895 17.5437 7.19423C17.6034 7.27734 17.6462 7.37132 17.6698 7.47087C17.6989 7.47567 17.8858 7.51215 18.1189 7.12863C18.352 6.74511 18.6576 6.32527 18.6576 6.32527L19.1431 5.60431L19.449 4.99279L19.833 4.30831L19.8914 3.98303V3.98303H19.8909Z" fill="#AC8132"/>
<path fill-rule="evenodd" clip-rule="evenodd" d="M20.3885 3.4928C20.3885 3.4928 20.0948 3.7328 19.9807 3.8768C19.8666 4.0208 19.5967 4.39872 19.5967 4.39872L19.6938 4.38656L20.1866 3.94976L20.3786 3.60752L20.3884 3.49344L20.3885 3.4928Z" fill="#A88F33"/>
<path fill-rule="evenodd" clip-rule="evenodd" d="M20.2985 22.7816C20.2985 22.7816 20.2937 22.5826 20.4054 22.4637C20.5195 22.3446 20.8083 22.1699 21.0899 21.5146C21.3715 20.8592 21.4028 20.7112 21.4028 20.7112C21.4028 20.7112 20.898 21.1432 20.5868 21.2451C20.6596 21.0946 20.7009 20.9878 20.7374 20.9101C20.6961 20.8738 20.5214 20.8325 20.5044 20.8131C20.6014 20.716 20.6548 20.4781 20.8515 20.3203C21.104 20.1283 21.5651 19.7984 21.9235 19.5043C22.2819 19.2102 22.9865 18.5262 23.0764 18.3272C23.1299 18.4048 23.1419 18.4533 23.1419 18.4533C23.1419 18.4533 22.7876 18.9146 22.6032 19.2082C22.4404 19.4606 22.4526 19.6038 22.4526 19.6038L22.7876 19.4598C22.7876 19.4598 22.8846 19.819 22.4454 20.3653C22.6374 20.2925 22.7148 20.3362 22.824 20.2754C22.6443 20.3896 22.3968 20.545 22.1638 20.972C21.9356 21.3992 21.6249 21.8968 21.1008 22.2074C20.591 22.535 20.2972 22.7802 20.2972 22.7802V22.7802L20.2985 22.7816Z" fill="#A67A2E"/>
<path fill-rule="evenodd" clip-rule="evenodd" d="M18.9831 6.39088C18.9831 6.39088 18.7841 6.80576 18.7549 7.12864C18.7501 7.2064 18.7306 7.26704 18.7306 7.3568C18.7258 7.6456 18.7476 7.96848 18.6826 8.11888C18.6583 8.05824 18.6461 8.01696 18.6218 7.9928C18.5855 8.09472 18.5199 8.41264 18.4665 8.53152C18.4423 8.45392 18.3889 8.18448 18.3938 7.86656C18.3988 7.54864 18.4058 7.48784 18.4058 7.4224C18.3938 7.51936 18.3282 7.65056 18.3039 7.72816C18.2676 7.66272 18.2263 7.57776 18.1777 7.50736C18.1485 7.55536 18.1122 7.62624 18.0807 7.66272C18.0757 7.6336 18.0637 7.55584 18.0564 7.44672C18.0516 7.32048 18.0442 7.15792 18.0516 7.12384C18.0636 7.0584 18.1657 6.80112 18.3817 6.5656C18.6389 6.284 18.9036 5.74288 18.9812 5.57536C19.0588 5.40784 19.3889 4.71136 19.3889 4.71136H19.6413L19.2748 5.54624C19.2748 5.54624 19.054 6.00256 18.9399 6.17024C18.8258 6.33792 18.5855 6.8184 18.4786 7.00528C18.5562 6.90336 18.6218 6.84992 18.6996 6.7528C18.7748 6.6848 18.9834 6.3912 18.9834 6.3912V6.3912L18.9831 6.39088Z" fill="#8C6228"/>
<path fill-rule="evenodd" clip-rule="evenodd" d="M20.3932 3.46112C20.352 3.58805 20.2868 3.70591 20.2012 3.80832C20.0507 3.988 19.7278 4.22816 19.5702 4.41984C19.4262 4.60672 19.1382 5.11648 19.2691 5.7208C19.3171 5.58976 19.4075 5.33008 19.6478 5.03632C19.8881 4.74256 20.1454 4.40528 20.2718 4.1432C20.3979 3.87856 20.4148 3.66992 20.4148 3.66992L20.4628 3.60928L20.4337 3.47088L20.3924 3.46112L20.3932 3.46112Z" fill="#CBA94C"/>
<path fill-rule="evenodd" clip-rule="evenodd" d="M25.3084 19.5606C25.3084 19.5606 25.2112 19.2961 25.1821 19.0558C25.153 18.8155 25.2301 18.7678 25.1408 18.4928C25.0874 18.3253 24.9904 18.3488 24.9661 18.3253C24.9418 18.3017 24.9248 18.0486 24.9296 17.9102C24.9344 17.7718 24.9248 17.5923 24.9005 17.5146C24.8642 17.4854 24.8399 17.4611 24.7864 17.2816C24.7258 17.1019 24.6967 17.0121 24.6676 16.9589C24.6384 16.9056 24.5533 16.8569 24.5533 16.8035C24.5533 16.6966 24.6504 16.641 24.6504 16.6115C24.6456 16.5509 24.5728 16.5995 24.5533 16.5824C24.5292 16.5533 24.6141 16.3785 24.5826 16.3542C24.5704 16.3422 24.4855 16.4441 24.4636 16.415C24.4392 16.3857 24.4101 16.0969 24.3664 15.9053C24.3253 15.7184 24.2815 15.5826 24.2767 15.5267C24.2719 15.4733 23.9416 14.5315 23.8616 14.3033C23.7972 14.1106 23.7429 13.9145 23.6991 13.716C23.6748 13.6019 23.6578 13.3688 23.6456 13.3931C23.6335 13.4174 23.6408 13.5363 23.6213 13.5315C23.6044 13.5265 23.5437 13.1117 23.5244 13.0461C23.5074 12.9805 23.4053 12.7581 23.3804 12.5971C23.356 12.4344 23.3028 12.0096 23.2663 11.7208C23.2298 11.432 23.2128 11.3131 23.2128 11.2408C23.2188 11.0639 23.2091 10.8868 23.1837 10.7117C23.1357 10.4057 23.0397 10.0344 22.9556 9.81855C22.793 9.41071 22.3608 8.36703 22.2836 8.10735C22.2836 8.04175 22.3685 8.07823 22.3685 8.07823C22.3685 8.07823 22.5796 8.60735 22.7349 9.01503C22.8855 9.42287 23.0287 9.78207 23.0652 9.81855C23.0943 9.85487 23.3224 10.2553 23.4244 10.9107C23.5263 11.5661 23.5626 12.1704 23.6234 12.5733C23.6525 12.7653 23.6768 12.969 23.7375 13.1728C23.8029 13.3938 23.9048 13.6219 24.0384 13.9713C24.1525 14.2651 24.2375 14.5102 24.2836 14.7214C24.337 14.9909 24.337 15.1947 24.3685 15.3283C24.3978 15.4424 24.4413 15.6704 24.5434 16.0003C24.6455 16.3302 24.7957 16.7552 24.8976 17.0197C25.0968 17.5488 25.1856 17.9905 25.2157 18.2261C25.2423 18.4688 25.3322 19.3086 25.3079 19.561V19.561L25.3084 19.5606Z" fill="#A88F33"/>
<path fill-rule="evenodd" clip-rule="evenodd" d="M20.4054 3.43202L20.3933 3.46114C20.3933 3.46114 20.4296 3.4733 20.4224 3.52194C20.4229 3.58849 20.4188 3.65499 20.4102 3.72098C20.3982 3.80594 20.3739 3.87138 20.3691 3.92482C20.3691 4.0389 20.3861 4.16994 20.2251 4.49522C20.1771 4.58498 20.1475 4.66258 20.1232 4.71602C20.0625 4.84706 20.0504 4.86658 19.9969 4.92722C20.0819 4.87922 20.3878 4.68722 20.543 4.71602C20.4363 4.77666 20.2736 4.8957 20.1717 5.05106C20.196 5.05586 20.2979 5.07538 20.4597 5.05106C20.7291 5.00978 21.0301 4.91266 21.2945 4.93202C21.5835 4.94898 21.4694 4.58498 21.4694 4.58498L21.136 3.85202L20.5049 3.40802L20.4054 3.43218V3.43202Z" fill="#BE9C44"/>
<path fill-rule="evenodd" clip-rule="evenodd" d="M22.051 8.92242C22.051 8.92242 21.7694 8.64082 21.6554 7.67442C21.5413 6.70354 21.5656 5.27442 21.5656 5.27442L21.3374 4.71618C21.3374 4.71618 21.2894 4.34482 21.1699 4.20658C21.0504 4.06834 20.8157 3.83522 20.7088 3.72114C20.6019 3.60706 20.4806 3.4517 20.4078 3.42738C20.4442 3.36674 20.6069 3.0245 21.2306 3.0197C21.8542 3.0149 22.0466 3.36194 22.1117 3.48818C22.1768 3.61442 22.4709 4.16018 22.58 5.20018C22.6819 6.2389 22.6869 6.31666 22.6699 6.67586C22.6578 6.8749 22.5922 7.33602 22.4779 7.82866C22.3736 8.24626 22.2595 8.71234 22.0507 8.92338L22.051 8.92242Z" fill="#A17C34"/>
<path fill-rule="evenodd" clip-rule="evenodd" d="M21.168 9.75008C21.2619 9.75685 21.3556 9.73569 21.4375 9.68928C21.5272 9.68448 21.8525 9.72576 22.1024 9.40784C22.1194 9.48048 22.1632 9.67728 22.049 9.852C22.1098 9.7912 22.1995 9.76704 22.2117 9.75008C22.2165 9.83984 22.3015 10.1165 21.9423 10.7888C22.0392 10.6821 22.1533 10.6869 22.2552 10.6747C22.2602 10.801 22.328 11.2256 22.1485 11.4539C22.0296 11.6093 21.8354 11.5606 21.8354 11.5606C21.8382 11.5267 21.8382 11.4926 21.8354 11.4587C21.8306 11.3931 21.8063 11.3277 21.8234 11.284C21.7295 11.2411 21.644 11.1819 21.5709 11.1091C21.3597 10.9101 21.0855 10.5704 21.0661 10.3179C21.0418 10.0363 21.2943 9.97568 21.2943 9.97568C21.2731 9.95676 21.2551 9.93462 21.2408 9.91008C21.2287 9.86896 21.2165 9.80336 21.168 9.75008V9.75008V9.75008Z" fill="#8C6228"/>
<path fill-rule="evenodd" clip-rule="evenodd" d="M19.296 6.69665C19.296 6.69665 19.2838 6.67969 19.2184 6.75729C19.2305 6.67969 19.2427 6.60673 19.2475 6.53633C19.2785 6.47116 19.3186 6.41071 19.3665 6.35681C19.3301 6.42945 19.3057 6.49505 19.3057 6.49505C19.3057 6.49505 19.3957 6.32753 19.5267 6.22561C19.6165 6.15281 19.7305 6.11889 19.779 6.05089C19.8325 5.97809 19.8203 5.96593 19.8325 5.95377C19.8325 5.95377 19.9515 5.87617 20.1336 5.64785C20.1577 5.61873 20.1942 5.58721 20.2185 5.55809C20.2597 5.54113 20.3568 5.49745 20.4709 5.43905C20.5899 5.37361 20.7233 5.28385 20.8059 5.24705C20.9685 5.17425 21.1409 5.18161 21.2209 5.06737C21.2816 5.05041 21.347 4.86833 21.335 4.71313C21.4248 4.74945 21.8859 5.03585 22.0438 5.66209C22.1579 6.10625 21.9539 6.79073 21.8689 7.12097C21.784 7.45121 21.772 7.69617 21.6529 7.84657C21.5024 8.04577 21.0171 8.32657 20.8981 8.46561C20.7961 8.57969 20.4904 8.86849 20.5024 9.07713C20.5145 9.23249 20.7062 9.31713 20.7477 9.34657C20.7891 9.37601 20.7888 9.41217 20.8665 9.39457C20.9443 9.37697 20.9733 9.34113 21.0049 9.34113C21.0413 9.34593 21.0413 9.35329 21.0582 9.35329C21.0705 9.35293 21.0828 9.35127 21.0947 9.34833C21.0947 9.34833 21.0825 9.56929 20.5656 9.63633C20.5291 9.64129 20.4928 9.65329 20.4465 9.66065C20.5073 9.63153 20.5437 9.63153 20.6093 9.54177C20.5365 9.52961 20.3277 9.51745 20.2742 9.50049C20.2912 9.47137 20.347 9.39361 20.3931 9.35729C20.4344 9.32097 20.3883 9.30929 20.352 9.32817C20.2895 9.37072 20.2295 9.41688 20.1723 9.46641C20.1117 9.51985 20.0582 9.59265 19.9611 9.65841C19.932 9.56129 19.9368 9.37681 20.051 9.24337C20.0217 9.24817 19.9659 9.33313 19.9126 9.31617C19.903 9.22764 19.9087 9.13811 19.9296 9.05153C19.9587 8.94225 20.1165 8.75057 20.1165 8.75057L20.8785 7.38881L21.0411 6.35729L19.296 6.69633V6.69633V6.69665Z" fill="#92723A"/>
<path fill-rule="evenodd" clip-rule="evenodd" d="M19.2549 6.7549C19.2549 6.7549 19.2136 6.78402 19.2962 6.83986C19.284 6.85682 19.2549 6.91746 19.2184 6.95874C19.1773 7.00674 19.1335 7.0365 19.1165 7.07778C19.0802 7.16274 19.0511 7.22098 19.0511 7.25746C19.0511 7.29394 19.0389 7.5269 18.937 7.6773C18.9005 7.73074 18.8592 7.8205 18.8301 7.88114C18.7695 7.98786 18.716 8.07314 18.7039 8.12114C18.6797 8.2061 18.6627 8.43906 18.6627 8.43906C18.6627 8.43906 18.7162 8.37346 18.7355 8.3493C18.7063 8.40994 18.6747 8.47538 18.6287 8.52402C18.6578 8.4997 18.7427 8.43906 18.8859 8.31282C19.085 8.14546 19.3957 7.86386 19.7744 7.64082C19.6602 7.6821 19.5632 7.6821 19.4856 7.69426C19.5463 7.63362 20.0923 6.99282 20.3787 6.93218C20.3961 6.91013 20.4048 6.88245 20.4031 6.85442L20.1578 6.83026L19.6602 6.93698L19.5875 6.55298L19.2549 6.75442V6.7549Z" fill="#B18E3E"/>
<path fill-rule="evenodd" clip-rule="evenodd" d="M20.0463 8.93937C20.0463 8.93937 19.9807 9.00481 19.92 9.16753C19.8733 9.11878 19.8333 9.06407 19.801 9.00481C19.7112 8.85441 19.573 8.66257 19.2501 8.77185C19.2453 8.66993 19.238 8.61649 19.2501 8.54369C19.3036 8.53169 19.4661 8.40065 19.6287 8.20881C19.7429 8.07777 19.8496 7.92721 19.9224 7.73553C19.9704 7.69905 20.0535 7.63841 20.1624 7.56801C20.3178 7.46129 20.5047 7.31553 20.5338 7.15297C20.461 7.18209 20.3056 7.25489 20.0725 7.24289C20.1624 7.20161 20.3007 7.15793 20.2837 6.97825C20.3202 6.95393 20.3493 6.93697 20.3493 6.93697C20.322 6.92784 20.2932 6.92373 20.2644 6.92481C20.2594 6.90785 20.2522 6.88369 20.2109 6.89569C20.1696 6.90769 20.1629 6.90785 20.1575 6.92481C20.1405 6.92977 20.0847 6.92481 20.0434 6.95409C20.0021 6.98337 19.888 7.08017 19.8444 7.09713C19.8613 7.06801 19.8855 7.02449 19.8855 7.02449C19.8855 7.02449 19.7666 7.03649 19.6816 7.07249C19.5263 7.12593 19.3468 7.22305 19.1647 7.31761C19.1816 7.28849 19.189 7.26961 19.201 7.26417C19.213 7.25873 19.2423 7.25217 19.2423 7.24721C19.2423 7.24225 19.2303 7.19921 19.2375 7.18177C19.2919 7.06645 19.3561 6.95602 19.4295 6.85169C19.5144 6.73745 19.5314 6.57489 19.5314 6.57489L19.9028 6.38801L20.9464 6.14801L21.6237 6.18929L21.5388 6.65777L21.1388 7.47569L20.7965 8.22081L20.4056 8.67729L20.0464 8.93937V8.93937H20.0463Z" fill="#543E26"/>
<path fill-rule="evenodd" clip-rule="evenodd" d="M21.738 6.912C21.738 6.912 21.3301 7.4168 21.216 7.49456C21.2888 7.3392 21.738 6.4144 21.9005 6.15712C21.8642 6.128 21.8156 6.128 21.9296 5.67712C21.8327 5.90512 21.7986 6.02416 21.7186 6.0848C21.6386 6.14544 21.6287 6.12608 21.5746 6.12608C21.5848 6.10761 21.589 6.08641 21.5866 6.06544C21.5866 6.06544 21.2444 6.02416 21.0106 6.02416C20.7768 6.02416 20.3141 6.1504 20.0567 6.25232C19.8528 6.33728 19.7388 6.33728 19.666 6.39056C19.5932 6.4512 19.5519 6.5168 19.5154 6.53376C19.4863 6.55072 19.348 6.5944 19.3164 6.64048C19.2872 6.68848 19.2388 6.7424 19.2388 6.75456C19.2388 6.76672 19.2266 6.78384 19.2631 6.77152C19.2751 6.76672 19.365 6.71808 19.4669 6.65744C19.6052 6.57984 19.7727 6.49008 19.8941 6.43664C20.2412 6.29824 20.3504 6.32256 20.5056 6.29344C20.6682 6.26432 20.9013 6.19632 21.0565 6.19632C21.2119 6.19152 21.5056 6.19632 21.5736 6.20848C21.5445 6.2328 21.5202 6.26192 21.5324 6.36384C21.5324 6.39296 21.508 6.42448 21.4844 6.49488C21.4117 6.69392 21.2733 7.024 21.1964 7.19152C21.0896 7.41952 20.9684 7.61136 20.9084 7.73024C20.8484 7.84912 20.7164 8.16224 20.5856 8.32976C20.4549 8.49728 20.3866 8.5992 20.3456 8.63568C20.3047 8.67216 20.0106 8.888 20.0325 8.96576C20.086 8.9488 20.4234 8.82176 20.6684 8.54592C20.9133 8.27008 20.9621 8.10176 21.1538 7.9512C21.3455 7.80064 21.496 7.54832 21.5858 7.33968C21.661 7.14544 21.644 7.0848 21.7386 6.91248V6.91248L21.738 6.912Z" fill="#806031"/>
<path fill-rule="evenodd" clip-rule="evenodd" d="M12.9492 10.6797C12.9492 10.6797 12.8957 10.9005 12.7743 11.0098C12.6554 11.1166 12.4442 11.2088 12.4201 11.3885C12.3909 11.568 12.6313 11.6579 12.6313 11.6579C12.6313 11.6579 12.5001 11.8739 12.5001 12.0365C12.5001 12.204 12.4953 12.2355 12.5122 12.3957C12.493 12.4081 12.4766 12.4244 12.4642 12.4437C12.4642 12.4437 12.4762 12.599 12.5953 12.696C12.7143 12.793 12.8161 12.8514 12.8767 12.827C12.886 12.8468 12.8941 12.8671 12.901 12.8878C12.901 12.8878 12.9909 12.6597 13.0516 12.4606C13.1122 12.2568 13.1657 12.2858 13.1898 12.0115C13.214 11.7373 13.4778 11.2664 13.4778 11.2664L13.6578 10.864L13.3642 10.6358L12.9492 10.6795V10.6797Z" fill="#B6903C"/>
<path fill-rule="evenodd" clip-rule="evenodd" d="M13.4952 11.0752C13.4347 11.1373 13.3788 11.2039 13.328 11.2742C13.2504 11.3811 13.1898 11.4781 13.0757 11.5195C12.9616 11.561 12.8888 11.5606 12.896 11.6749C12.9032 11.7891 13.0101 11.8374 13.0707 11.8957C13.1363 11.9563 13.1898 12.0582 13.1606 12.1725C13.197 12.1555 13.2626 12.136 13.3232 12.005C13.3838 11.8739 13.808 11.0754 13.808 11.0754H13.4952V11.0752Z" fill="#685026"/>
<path fill-rule="evenodd" clip-rule="evenodd" d="M15.1681 9.23295C15.1681 9.23295 15.2044 9.13599 15.1681 9.06559C15.1316 8.99279 14.9108 8.96847 14.8015 8.88591C14.6874 8.80095 14.549 8.74191 14.4349 8.77919C14.4519 8.73791 14.5199 8.64799 14.4641 8.62863C14.4106 8.61167 14.2117 8.70143 14.1583 8.74271C14.1049 8.78399 13.9834 8.83247 13.9593 8.86175C13.9351 8.89103 13.8937 8.94671 13.8693 8.92239C13.845 8.90543 13.833 8.86175 13.7917 8.88591C13.7505 8.91007 13.5517 9.07279 13.5151 9.16751C13.4785 9.26223 13.3961 9.47343 13.1485 9.71359C12.901 9.95375 12.7941 10.1093 12.8669 10.199C12.9397 10.2888 12.9738 10.2234 12.986 10.301C12.9953 10.3771 12.9912 10.4544 12.9738 10.5291C12.9447 10.6554 12.8962 10.7742 12.9617 10.7986C13.1292 10.852 13.2919 10.7506 13.3282 10.7816C13.401 10.847 13.2869 11.0826 13.4593 11.1286C13.6341 11.1766 13.8065 11.0874 13.8065 11.0874L14.4423 10.7451L15.054 10.4224L15.3669 9.80335L15.1991 9.28639L15.1671 9.23295H15.1681Z" fill="#D4B968"/>
<path fill-rule="evenodd" clip-rule="evenodd" d="M14.568 10.7112C14.568 10.7112 14.4611 10.5486 14.5923 10.4053C14.7235 10.2619 14.9103 10.2014 14.9831 10.1117C14.9692 10.0946 14.9506 10.0819 14.9296 10.0754C14.9779 9.98888 15.0517 9.91934 15.1408 9.87616C15.1045 9.83984 15.0559 9.81072 15.0026 9.81072C14.8835 9.81072 14.8106 9.88352 14.7015 9.88352C14.5947 9.88352 14.5826 9.83008 14.5826 9.83008C14.5826 9.83008 14.7623 9.81312 14.7451 9.73296C14.7282 9.648 14.6971 9.648 14.6971 9.648C14.6971 9.648 15.0442 9.504 15.1048 9.4272C15.1655 9.3504 15.1583 9.25968 15.1704 9.22336C15.2115 9.22336 15.4519 9.09712 15.549 9.15056C15.6461 9.204 15.5781 9.3496 15.5781 9.3496C15.5781 9.3496 15.872 9.12864 16.0218 8.912C16.1528 8.92416 16.2138 8.82224 16.3098 8.82224C16.4288 8.82224 16.6157 8.9848 16.652 9.33184C16.6763 9.53088 16.7127 9.64496 16.6763 9.99696C16.6594 10.196 16.6642 10.621 16.7243 10.8318C16.7655 10.9994 16.8626 10.9824 16.8626 10.9824C16.8477 11.0334 16.8181 11.079 16.7776 11.1134C16.712 11.1741 16.7048 11.3344 16.712 11.395C16.7217 11.4394 16.7339 11.4831 16.7485 11.5261C16.7485 11.5261 16.6709 11.6158 16.6514 11.6766C16.6344 11.7373 16.5544 11.7786 16.496 11.7786C16.4376 11.7786 16.4669 11.7736 16.3893 11.7786C16.3117 11.7835 16.2874 11.7955 16.2387 11.7786C16.1901 11.7616 16.1538 11.7421 16.1733 11.5866C16.1903 11.4312 15.5738 11.0696 15.5738 11.0696L14.5658 10.7104V10.7104L14.568 10.7112Z" fill="#CCA849"/>
<path fill-rule="evenodd" clip-rule="evenodd" d="M13.4102 12.2451C13.4102 12.2451 13.631 12.5389 14.5389 12.5389C14.9709 12.5389 15.1214 12.4976 15.2109 12.4733C15.308 12.449 15.672 12.3059 16.0385 11.8738C16.3686 11.483 16.2958 11.3229 16.2958 11.3229L16.1038 11.2938L15.4798 11.3787L13.6334 12.1651L13.4094 12.2451H13.4102Z" fill="#585136"/>
<path fill-rule="evenodd" clip-rule="evenodd" d="M14.0873 12.3179C14.0873 12.3179 13.3009 12.4928 13.3009 11.9952C13.3009 11.5098 13.7863 11 13.9078 10.9103C14.034 10.8203 14.335 10.7183 14.335 10.7183H15.0607L15.199 11.0848L15.1383 11.876L14.0873 12.3178V12.3179Z" fill="#252211"/>
<path fill-rule="evenodd" clip-rule="evenodd" d="M14.8131 10.8666C14.8131 10.8666 14.6627 10.7282 14.3205 10.9146C13.9782 11.101 13.7014 11.4906 13.6845 11.8443C13.6675 12.1573 13.9417 12.3904 14.3689 12.4026C14.6869 12.4146 14.8787 12.3782 14.9758 12.3546C14.9515 12.3254 14.8253 12.1677 14.8253 12.1677L14.8133 10.8667V10.8667L14.8131 10.8666Z" fill="#C3B378"/>
<path fill-rule="evenodd" clip-rule="evenodd" d="M14.6652 10.944C14.6652 10.944 14.6289 10.9149 14.5212 10.9731C14.4314 11.0211 14.3004 11.148 14.1985 11.2377C14.1329 11.2912 14.0916 11.3153 14.0545 11.3566C13.9039 11.5363 13.7777 11.8301 13.8506 11.9757C13.9236 12.1213 14.1637 12.2888 14.7754 12.1747L14.6634 10.9441V10.9441L14.6652 10.944Z" fill="#E6D89C"/>
<path fill-rule="evenodd" clip-rule="evenodd" d="M14.4661 11.2451C14.4661 11.2451 14.369 11.3957 14.369 11.636C14.369 11.8811 14.5074 12.2719 15.0172 12.301C15.4079 12.3253 15.67 11.7379 15.954 11.5098C16.17 11.3351 16.301 11.3301 16.301 11.3301C16.301 11.3301 16.0802 11.0901 15.4904 10.7792C14.9079 10.4661 14.2549 10.4248 13.9005 10.9055C14.068 10.8933 14.6093 10.7549 14.6093 10.7549L14.874 10.8399L14.4661 11.2453V11.2453V11.2451Z" fill="#252211"/>
<path fill-rule="evenodd" clip-rule="evenodd" d="M15.2282 11.563C15.2112 11.5267 15.199 11.4781 15.2694 11.4661C15.3398 11.4541 15.3714 11.4611 15.3957 11.5141C15.42 11.567 15.4437 11.6112 15.4077 11.6331C15.3714 11.6525 15.2766 11.6331 15.228 11.5627L15.2282 11.563ZM15.1141 11.2208C15.1141 11.2208 15.0898 11.2377 15.1019 11.2038C15.1067 11.1627 15.1384 11.0897 15.216 11.1069C15.2936 11.124 15.2768 11.2088 15.264 11.2331C15.2512 11.2574 15.1864 11.2985 15.1378 11.2811C15.1252 11.2779 15.115 11.2689 15.1102 11.257C15.1054 11.245 15.1066 11.2314 15.1134 11.2205L15.1141 11.2208Z" fill="#6F674D"/>
<path fill-rule="evenodd" clip-rule="evenodd" d="M8.54395 11.376C8.54395 11.376 8.73595 11.52 8.95899 11.5144C9.17979 11.5094 9.46379 11.2814 9.59483 11.1357C9.67243 11.0507 9.73883 10.9609 9.81083 10.8905C9.87163 10.8299 9.91275 10.8008 9.94187 10.7595C9.98315 10.7115 10.0268 10.6213 10.0487 10.592C9.99531 10.6333 9.91771 10.7062 9.83755 10.7547C9.75995 10.8027 9.59243 10.8929 9.52443 10.9173C9.45899 10.9416 8.77931 11.3013 8.77931 11.3013L8.54395 11.376V11.376Z" fill="#AC924C"/>
<path fill-rule="evenodd" clip-rule="evenodd" d="M8.8374 9.58254C8.8374 9.58254 8.94412 9.50974 9.15052 9.4635C9.34956 9.4155 9.75004 9.37854 9.75004 9.37854L10.0801 9.52254L10.2112 10.0201L9.97116 10.5373L9.6654 10.7293L9.3182 10.171L8.8382 9.5835V9.5835L8.8374 9.58254Z" fill="#9F8E57"/>
<path fill-rule="evenodd" clip-rule="evenodd" d="M8.4055 10.0267L8.29126 10.112C8.29126 10.112 8.32054 10.0586 8.3447 9.896C8.36886 9.73344 8.49526 9.33776 8.67974 9.1096C8.86422 8.88144 8.85942 8.8936 8.85942 8.8936C8.82508 8.88732 8.7897 8.89613 8.7623 8.91776C8.78662 8.864 8.94198 8.672 9.09734 8.576C9.2527 8.48 9.31334 8.44976 9.4759 8.528C9.63846 8.60624 9.67974 8.64688 9.79878 8.64208C9.91782 8.63728 10.0196 8.51104 10.0196 8.51104C10.0196 8.51104 10.0439 8.58864 9.95414 8.76832C9.86438 8.948 9.50998 9.3144 9.50998 9.3144L8.77206 9.8192L8.4055 10.0272V10.0272V10.0267Z" fill="#EAC970"/>
<path fill-rule="evenodd" clip-rule="evenodd" d="M8.95132 9.52192C8.95132 9.52192 9.4854 9.59472 9.64796 9.44432C9.65276 9.46128 9.67228 9.46128 9.67228 9.47344C9.67098 9.4826 9.66671 9.49109 9.66012 9.4976C9.67781 9.49478 9.69566 9.49317 9.71356 9.4928C9.73494 9.49916 9.75693 9.50324 9.77916 9.50496C9.79707 9.50457 9.81493 9.50292 9.8326 9.5C9.82919 9.52438 9.81603 9.54632 9.79612 9.5608C9.82044 9.5608 9.84412 9.5656 9.84412 9.58496C9.84412 9.60432 9.84892 9.66272 9.8198 9.67488C9.79568 9.68155 9.77 9.6798 9.747 9.66992C9.74893 9.71587 9.76141 9.76077 9.78348 9.80112C9.83148 9.89088 9.93388 9.99312 10.0715 9.96368C10.0715 9.96368 10.1441 10.1384 9.83836 10.5267C9.79724 10.5802 9.7534 10.653 9.70012 10.7136C9.67907 10.7595 9.66298 10.8075 9.65212 10.8568C9.65212 10.8568 10.1692 10.6578 10.3172 10.2038C10.4678 9.74752 10.4969 9.29856 10.4678 8.87872C10.4628 8.75968 10.4435 8.67488 10.4144 8.61408C10.3416 8.46352 10.1376 8.48784 10.0552 8.5728C9.93612 8.69184 9.73708 8.98784 9.46044 9.19168C9.17884 9.39552 9.16684 9.43168 8.95068 9.52192V9.52192H8.95132Z" fill="#D7BC6B"/>
<path fill-rule="evenodd" clip-rule="evenodd" d="M8.31068 10.1773C8.31068 10.1773 8.20876 10.2379 8.15532 10.4653C8.10188 10.6982 8.20332 10.9822 8.26204 11.072C8.32076 11.1618 8.45404 11.407 8.73052 11.4192C8.79895 11.4188 8.86663 11.4048 8.92956 11.3779C9.02608 11.3337 9.11661 11.2774 9.199 11.2104C9.31804 11.1206 9.415 11.043 9.40284 11.0357C9.37372 11.0235 8.66988 10.441 8.66988 10.441L8.40524 10.1456L8.31052 10.1776L8.31068 10.1773Z" fill="#585136"/>
<path fill-rule="evenodd" clip-rule="evenodd" d="M8.97598 11.1432C8.97598 11.1432 9.11918 11.1312 9.20414 11.0778C9.2891 11.0243 8.70654 10.4467 8.70654 10.4467L8.74782 11.0707L8.97598 11.1432Z" fill="#453A25"/>
<path fill-rule="evenodd" clip-rule="evenodd" d="M8.35682 10.1334C8.35682 10.1334 8.28402 10.2718 8.28402 10.3083C8.27186 10.4272 8.30834 10.8009 8.33746 10.9198C8.36658 11.0461 8.52434 11.2377 8.72834 11.2377C8.85442 11.2377 9.0293 11.1601 9.0293 11.1408C9.0293 11.1165 8.84962 11.0928 8.80114 11.0024C8.77202 10.9544 8.75986 10.835 8.75314 10.7144C8.74834 10.6368 8.74834 10.5518 8.77746 10.5224C8.84306 10.4496 8.85506 10.2408 8.85506 10.2408L9.08802 9.80798H8.78162L8.41506 10.0361L8.35682 10.1334Z" fill="#84754B"/>
<path fill-rule="evenodd" clip-rule="evenodd" d="M8.26709 10.2671C8.26709 10.2671 8.50709 9.94913 8.72341 9.87617C8.93973 9.80321 9.03653 9.84705 9.03653 9.84705L8.91029 10.1699L8.73061 10.369L8.74277 10.4709C8.74277 10.4709 8.71349 10.7403 8.89317 10.9272C9.07285 11.1141 9.20629 11.1069 9.28405 11.1069C9.36181 11.1069 9.58501 11.0413 9.69909 10.7719C9.80101 10.5195 9.88597 10.1959 9.68213 9.87137C9.48293 9.54849 9.13109 9.53601 9.06309 9.53601C8.99509 9.53601 8.46117 9.56273 8.26709 10.2666V10.2666V10.2671Z" fill="#252211"/>
<path fill-rule="evenodd" clip-rule="evenodd" d="M14.4296 11.347C14.3398 11.3058 14.4248 11.0534 14.5145 10.9757C14.6043 10.8979 14.7184 10.8083 14.9176 10.796C14.9902 10.7912 15.0606 10.8373 15.0486 10.8859C15.0316 10.9757 14.9054 11.1019 14.7913 11.1917C14.6336 11.3155 14.5315 11.3931 14.4296 11.347Z" fill="#F7F7E7"/>
<path fill-rule="evenodd" clip-rule="evenodd" d="M9.57516 9.97088C9.64076 9.96608 9.72572 10.0189 9.74268 10.0899C9.75964 10.1675 9.7014 10.3229 9.57516 10.3229C9.47324 10.3229 9.4198 10.1966 9.4198 10.1603C9.42095 10.1305 9.42929 10.1013 9.44412 10.0754C9.44892 10.068 9.46108 9.98304 9.57516 9.97088V9.97088Z" fill="#F8F6DE"/>
<path fill-rule="evenodd" clip-rule="evenodd" d="M8.62862 10.0267C8.62862 10.0267 8.4611 10.1043 8.3835 10.2667C8.32805 10.3867 8.31128 10.5209 8.3355 10.6507C8.34766 10.7114 8.4083 10.8618 8.44958 10.9152C8.49086 10.9687 8.5467 11.0051 8.58798 11.0002C8.62926 10.9952 8.71406 10.8861 8.71406 10.8207C8.71406 10.7552 8.71902 10.4784 8.79902 10.3279C8.86942 10.1775 8.6291 10.0269 8.6291 10.0269V10.0269L8.62862 10.0267Z" fill="#D4C38B"/>
<path fill-rule="evenodd" clip-rule="evenodd" d="M8.65292 10.0146C8.6238 10.0315 8.57532 10.0558 8.58732 10.0874C8.59948 10.1165 8.7014 10.1354 8.73788 10.2064C8.77916 10.2792 8.77916 10.3568 8.767 10.3933C8.79871 10.3782 8.82748 10.3576 8.85196 10.3325C8.9054 10.2718 8.97084 10.1894 9.02668 10.1894C9.06316 10.1894 9.09948 10.2064 9.13356 10.2064C9.187 10.2064 9.24028 10.1894 9.24764 10.1336C9.25964 10.0608 9.14572 9.99519 9.08012 10.0074C9.09228 9.95935 9.10924 9.88847 9.0558 9.83983C9.00236 9.79119 8.835 9.87631 8.79852 9.90063C8.76204 9.92495 8.65292 10.0147 8.65292 10.0147V10.0147V10.0146Z" fill="#E2D59D"/>
<path fill-rule="evenodd" clip-rule="evenodd" d="M12.5097 15.1141L12.8689 15.008L12.9708 15.0808C12.9708 15.0808 13.0435 15.2362 13.1577 15.2555C13.1212 15.3331 13.0265 15.3995 13.0315 15.4546C13.0364 15.5096 13.0849 15.5517 13.0849 15.5517C13.0849 15.5517 12.762 16.0856 13.398 16.6237C13.2475 16.6843 13.0558 16.7677 12.9539 16.8157C13.0265 16.8326 13.1819 16.8637 13.2475 16.9226C13.3131 16.9814 13.3131 17.0002 13.3737 17.0366C13.4344 17.0731 13.4707 17.1216 13.4587 17.1434C13.4174 17.119 13.279 17.0464 13.2548 17.1142C13.2307 17.1821 12.6553 17.1555 12.6553 17.1555L11.6844 17.3424C11.6844 17.3424 11.7208 17.2453 11.6188 17.1555C11.5 17.0488 11.3544 17.1603 11.199 17.0414C10.9952 16.8861 10.9878 16.7064 10.9224 16.6386C10.9878 16.5973 11.1214 16.5366 11.4393 16.4946C11.4272 16.4702 11.3859 16.3974 11.4102 16.332C11.4393 16.247 11.5606 16.1936 11.5243 16.092C11.5777 16.0798 11.6019 16.0798 11.7355 15.9123C11.8617 15.7448 11.9393 15.7085 12.0364 15.6963C12.1336 15.6842 12.1918 15.6963 12.3715 15.5288C12.4976 15.4099 12.4564 15.308 12.4564 15.308C12.4564 15.308 12.5388 15.2813 12.5099 15.1138V15.1138L12.5097 15.1141Z" fill="#CBAC5A"/>
<path fill-rule="evenodd" clip-rule="evenodd" d="M11.4492 15.168C11.454 15.1437 11.4735 15.1315 11.6045 15.1437C11.7356 15.1558 12.5656 15.0661 12.7914 15.0539C13.0196 15.037 13.8229 15.049 14.2138 15.1315C14.6047 15.2141 15.0002 15.3112 15.1919 15.3597C15.3839 15.4131 15.4444 15.4323 15.437 15.4566C15.4322 15.481 15.389 15.5046 15.3642 15.4979C15.34 15.4931 14.7041 15.2989 14.5076 15.2579C14.3111 15.217 13.6312 15.1074 13.2596 15.1139C12.9125 15.1189 12.7741 15.1091 12.4805 15.143C12.1868 15.1795 11.7013 15.228 11.5557 15.2086C11.4117 15.1917 11.4415 15.1917 11.4488 15.1674V15.1674L11.4492 15.168Z" fill="#D6BC6F"/>
<path fill-rule="evenodd" clip-rule="evenodd" d="M13.4028 17.0704C13.4028 17.0704 13.9004 17.3399 14.0801 17.6699C14.2112 17.9151 14.0025 18.0365 14.0025 18.0365C14.0025 18.0365 14.2841 18.0365 14.2476 18.1919C14.2307 18.2888 13.7622 18.5509 13.4491 18.6893C13.1312 18.8277 13.1433 18.8205 12.988 18.8447C12.8374 18.869 12.4248 18.7967 12.3398 18.9175C12.2548 19.0383 12.2918 19.1627 12.3155 19.1821C12.3398 19.1991 12.5364 19.2234 12.5364 19.2234C12.5364 19.2234 12.4952 19.3375 12.0875 19.3496C11.6798 19.3618 11.5777 19.3907 11.5534 19.4346C11.5291 19.4757 11.631 19.4515 11.818 19.4826C12.0049 19.5117 12.267 19.5306 12.267 19.5306C12.267 19.5306 12.182 19.6034 11.9612 19.6616C11.7088 19.7271 11.3131 19.7879 11.1942 19.8607C11.2548 19.9019 11.3448 19.9626 11.3862 19.9674C11.2843 19.9917 11.1409 20.0451 11.1168 20.0645C11.1531 20.0888 11.2017 20.1179 11.2017 20.1179C11.2017 20.1179 10.9977 20.3631 10.8788 20.4239C10.76 20.4847 10.0755 20.8024 9.83996 20.7418C9.2526 20.5864 9.1798 19.9432 9.0366 19.8947C8.8206 19.8219 8.71868 19.9674 8.52684 19.8655C8.6118 19.8048 8.65804 19.7685 8.7478 19.7272C8.65068 19.6792 8.14828 19.3607 8.14828 19.3607C8.09575 19.2461 8.03743 19.1344 7.97356 19.0258C7.87644 18.8583 7.73356 18.6349 7.62636 18.4383C7.3934 18.0063 7.38124 17.8072 7.17004 17.5621C7.20652 17.5141 7.3326 17.5208 7.3326 17.5208L9.1022 18.1034L12.24 18.1943L13.056 17.0293L13.403 17.0706L13.4028 17.0704Z" fill="#DFC677"/>
<path fill-rule="evenodd" clip-rule="evenodd" d="M8.75488 18.847C8.77382 18.8681 8.79589 18.8861 8.82032 18.9005C8.88112 18.9418 8.97088 18.9904 9.03152 19.063C9.05584 19.0267 9.11648 18.9611 9.22352 19.063C9.33056 19.165 9.46352 19.0923 9.54624 19.1165C9.6312 19.1458 9.636 19.1578 9.636 19.1578C9.636 19.1578 9.684 19.1165 9.79136 19.0728C9.85696 19.0485 9.93456 19.0315 10.0195 19.0074C10.0971 18.9904 10.1821 18.9661 10.2405 18.9661C10.2939 19.0024 10.4856 19.2061 11.255 18.9054C11.9808 18.6238 12.1482 18.5923 12.2696 18.6358C12.2818 18.6067 12.2939 18.5509 12.4808 18.5582C12.4808 18.4806 12.3254 18.216 12.3254 18.216L11.4686 17.9224H11L9.59472 18.1797L8.816 18.624L8.75536 18.848L8.75488 18.847Z" fill="#C4A859"/>
<path fill-rule="evenodd" clip-rule="evenodd" d="M8.28638 18.3544C8.28638 18.3544 8.30334 18.4854 8.49758 18.6238C8.68958 18.7621 8.7499 18.8446 8.7499 18.8446C8.7499 18.8446 8.78638 18.7966 8.8155 18.7477C8.84462 18.6942 8.86894 18.6336 8.91742 18.6166C9.01454 18.5754 9.23534 18.653 9.28398 18.6408C9.32526 18.6288 9.3131 18.5438 9.35678 18.5438C9.4587 18.5389 9.52414 18.6093 9.56062 18.6093C9.5971 18.6093 9.6867 18.6045 9.69886 18.5851C9.71102 18.5658 9.71582 18.3642 9.85422 18.267C10.0048 18.1603 10.1893 18.2064 10.2382 18.2307C10.2382 18.267 10.243 18.357 10.3401 18.3618C10.4373 18.3666 10.4469 18.3496 10.5321 18.3787C10.6174 18.4078 10.719 18.3739 10.7651 18.517C10.8064 18.505 10.9035 18.4928 10.8792 18.3544C10.9272 18.3181 10.9691 18.2938 11.0712 18.1506C11.0955 18.1142 11.1366 18.073 11.1683 18.0195C11.2533 18.0195 11.3552 18.0026 11.491 18.1214C11.4497 18.1506 11.4254 18.1694 11.4134 18.199C11.4489 18.2342 11.4814 18.2724 11.5104 18.3131C11.5469 18.3611 11.5712 18.42 11.6173 18.4322C11.7192 18.4613 11.8867 18.42 12.0736 18.4322C12.2533 18.4443 12.4037 18.5098 12.4693 18.551C12.4936 18.539 12.4936 18.5341 12.5542 18.5462C12.6149 18.5584 12.6609 18.5632 12.5955 18.4856C12.6318 18.5026 12.6731 18.539 12.7096 18.5026C12.7461 18.4661 12.775 18.4128 12.8769 18.4006C12.9789 18.3885 13.0153 18.4054 13.0566 18.2987C13.1101 18.1677 12.9256 18.1677 12.9256 18.1677C12.9256 18.1677 13.0105 18.0899 13.1053 17.988C13.2193 17.8813 13.3504 17.7429 13.3819 17.573C13.4353 17.2598 13.1296 17.2187 13.1296 17.2187L11.6465 17.675L9.83342 17.5851L8.28734 18.3546V18.3546L8.28638 18.3544Z" fill="#927D49"/>
<path fill-rule="evenodd" clip-rule="evenodd" d="M6.95395 14.0704C6.95395 14.0704 6.90595 14.1311 6.87635 14.2743C6.84675 14.4175 6.85939 14.4005 6.83507 14.5024C6.81075 14.6043 6.51203 15.6189 6.62403 15.9611C6.73603 16.3034 6.92995 16.4296 7.05123 16.7063C7.07555 16.7669 7.09923 16.8034 7.11187 16.8568C7.15315 17.0363 7.11683 17.1747 7.16531 17.3544C7.18227 17.4151 7.22611 17.4855 7.29155 17.5583C7.43555 17.7087 7.67027 17.8519 7.77155 17.9538C7.91459 18.1043 8.11859 18.4103 8.37827 18.4392C8.51667 18.4562 8.71331 18.3979 8.87587 18.301C9.01987 18.2111 9.10883 18.085 9.25987 18.013C9.36659 17.9595 9.48067 17.9402 9.58259 17.9159C9.79379 17.8746 9.98563 17.8679 10.0997 17.8915C10.2744 17.928 10.6871 18.0543 10.9157 18.0543C11.0944 18.0514 11.272 18.0269 11.4448 17.9815C11.7919 17.8795 12.2117 17.7047 12.4885 17.6271C12.6511 17.5791 12.7821 17.5664 12.9157 17.5373C13.1439 17.4839 13.3356 17.4111 13.4448 17.2727C13.372 17.1877 13.2823 17.0567 12.7967 17.0615C12.2458 17.0736 11.6098 17.3794 11.2967 17.428C10.9836 17.4767 10.8477 17.5178 10.4981 17.3915C10.1554 17.264 10.144 17.1797 10.144 17.1797C10.144 17.1797 9.78419 16.928 9.63363 16.2864C9.48307 15.6448 9.63363 15.1773 10.0245 14.733C10.1264 14.6189 10.1021 14.517 10.1021 14.517C10.1021 14.517 10.3594 14.1699 10.289 13.845C10.2114 13.5221 9.71379 13.5877 9.71379 13.5877L6.95411 14.0704V14.0704H6.95395Z" fill="#6E6342"/>
<path fill-rule="evenodd" clip-rule="evenodd" d="M7.36893 15.1506C7.34753 15.1908 7.33747 15.2361 7.33981 15.2816C7.34461 15.3471 7.36413 15.432 7.56061 15.6239C7.72813 15.7912 7.69165 15.9781 7.69165 15.9781C7.69165 15.9781 7.77597 15.9951 8.00477 15.888C8.18445 15.8031 8.24477 15.9536 8.24477 15.9536C8.29707 15.9262 8.35377 15.9081 8.41229 15.9002C8.46532 15.8953 8.51664 15.8789 8.56269 15.8522C8.56269 15.8522 8.77389 16.0682 8.95837 16.1701C9.12589 16.26 9.22301 16.3207 9.30557 16.26C9.38317 16.2066 9.38317 16.0973 9.37821 16.0488C9.35896 16.0041 9.33458 15.9617 9.30557 15.9226C9.25213 15.845 9.16717 15.7551 9.16157 15.6826C9.14941 15.5152 9.28781 15.316 9.25853 15.2675C9.22925 15.2191 9.12029 15.2069 8.85085 15.304C8.57181 15.3962 7.36781 15.1511 7.36781 15.1511V15.1511L7.36893 15.1506Z" fill="#39331F"/>
<path fill-rule="evenodd" clip-rule="evenodd" d="M8.00485 16.2355C8.00485 16.2355 7.86661 16.1045 7.91509 15.4685C7.97378 15.4676 8.03239 15.4733 8.08981 15.4854C8.08981 15.4854 8.16517 15.9782 8.00485 16.2355Z" fill="#292311"/>
<path fill-rule="evenodd" clip-rule="evenodd" d="M7.01947 13.585C7.03876 13.5707 7.05665 13.5546 7.07291 13.537C7.02491 13.6267 6.80331 13.9859 6.98299 14.5515C7.16267 15.1146 7.61403 15.5344 8.16987 15.5539C8.72571 15.5734 9.01787 15.3014 9.35195 14.8938C9.48299 14.7312 9.63355 14.5272 9.76699 14.389C9.96603 14.1728 10.1214 14.1122 10.1214 13.9035C10.1214 13.4763 9.68443 13.2845 9.04123 13.0928C8.39803 12.9011 7.81787 12.9248 7.51691 13.056C7.22331 13.199 7.09707 13.3496 7.01931 13.5851V13.5851L7.01947 13.585Z" fill="#252211"/>
<path fill-rule="evenodd" clip-rule="evenodd" d="M9.08495 16.4272L9.13295 16.4029C9.13295 16.4029 9.14495 16.2109 9.22271 16.216C9.30031 16.2281 9.33679 16.3302 9.32943 16.3665C9.32463 16.4029 9.30527 16.4637 9.22751 16.4563C9.12559 16.4587 9.08447 16.4272 9.08447 16.4272H9.08495Z" fill="#3F3824"/>
<path fill-rule="evenodd" clip-rule="evenodd" d="M8.86902 15.6117C8.86902 15.6117 8.91702 15.5947 8.97574 15.653C9.02374 15.653 9.23302 15.6286 9.29862 15.6699C9.36422 15.7112 9.38358 15.7475 9.38358 15.7475C9.38358 15.7475 9.13846 15.801 9.00486 15.7475C8.86902 15.7014 8.86902 15.6117 8.86902 15.6117H8.86902Z" fill="#2D2815"/>
<path fill-rule="evenodd" clip-rule="evenodd" d="M9.94909 15.648C9.94909 15.6358 9.81805 15.5461 9.67965 15.5168C9.65533 15.512 9.65037 15.529 9.63165 15.529C9.61949 15.5242 9.61469 15.4877 9.61469 15.4877L9.53597 15.5291C9.53597 15.5291 9.52381 15.5461 9.56509 15.5771C9.60141 15.6062 9.66221 15.6306 9.67917 15.679C9.69613 15.7275 9.69613 15.7445 9.70349 15.7518C9.70829 15.7566 9.79325 15.7518 9.83453 15.7275C9.87581 15.7032 9.95357 15.6635 9.94861 15.6475V15.6475L9.94909 15.648Z" fill="#82764F"/>
<path fill-rule="evenodd" clip-rule="evenodd" d="M8.72339 16.1408C8.72339 16.1408 8.74755 15.9734 8.91027 15.9661C9.07763 15.9539 9.10931 16.1165 9.10931 16.1165L9.01219 16.2136C9.01219 16.2112 8.93939 16.1093 8.72419 16.1408H8.72339Z" fill="#2D2816"/>
<path fill-rule="evenodd" clip-rule="evenodd" d="M9.77919 15.4198C9.77919 15.4198 9.68927 15.517 9.49039 15.5461C9.47343 15.5218 9.43695 15.4733 9.49039 15.3957C9.54383 15.3181 9.60447 15.2938 9.66511 15.3179C9.71974 15.3268 9.76426 15.3665 9.77919 15.4198Z" fill="#574F35"/>
<path fill-rule="evenodd" clip-rule="evenodd" d="M10.1456 15.5389C10.1506 15.5146 10.1336 15.5098 10.1456 15.4976C10.1576 15.4854 10.2234 15.4613 10.2355 15.4733C10.2403 15.4782 10.2355 15.4976 10.2355 15.5213C10.2355 15.545 10.2355 15.5693 10.2234 15.5867C10.2064 15.611 10.1579 15.6232 10.1336 15.616C10.1093 15.6088 10.1045 15.5747 10.1045 15.568C10.1165 15.5632 10.1456 15.551 10.1456 15.5389ZM10.56 15.2768C10.56 15.2646 10.6013 15.2403 10.6256 15.2403C10.6619 15.2403 10.6619 15.2694 10.6669 15.2768C10.6789 15.2816 10.6789 15.2718 10.6911 15.2938C10.7032 15.3157 10.7203 15.3544 10.708 15.3787C10.6957 15.403 10.6474 15.4198 10.6354 15.415C10.6184 15.4029 10.565 15.2938 10.56 15.2768V15.2768Z" fill="#82764F"/>
<path fill-rule="evenodd" clip-rule="evenodd" d="M9.72571 15.5947C9.72571 15.5947 9.77915 15.6067 9.85195 15.6675C9.82763 15.6845 9.79115 15.7038 9.79115 15.7038C9.79115 15.7038 9.78635 15.648 9.72571 15.5945V15.5947Z" fill="#6E6342"/>
<path fill-rule="evenodd" clip-rule="evenodd" d="M9.6069 15.0606C9.59474 15.0486 9.64322 15.0195 9.67234 15.0243C9.70146 15.0291 9.71362 15.0486 9.74514 15.0534C9.77666 15.0582 9.78162 15.0413 9.79314 15.0291C9.80466 15.017 9.84658 15.0243 9.85378 15.0291C9.85826 15.0344 9.86233 15.0401 9.86594 15.0461C9.86697 15.0274 9.87572 15.01 9.8901 14.9981C9.90896 14.9842 9.93312 14.9797 9.9557 14.9859C9.9605 15.0029 9.98482 15.0635 9.98002 15.0757C9.97522 15.0878 9.90242 15.105 9.8901 15.0926C9.90226 15.1219 9.9557 15.1826 9.9629 15.1946C9.9701 15.2066 9.90946 15.2358 9.8853 15.231C9.85138 15.2286 9.64258 15.1072 9.60626 15.0611L9.6069 15.0606ZM9.92482 14.6578C9.92032 14.6455 9.91173 14.6352 9.9005 14.6286C9.88354 14.6238 9.8277 14.6286 9.8277 14.6578C9.8277 14.6869 9.8757 14.8498 9.92962 14.9346C9.99042 15.0195 10.0315 15.0898 10.0728 15.1093C10.0997 15.1215 10.1315 15.1109 10.1456 15.085C10.1504 15.0728 10.1626 14.983 10.1578 14.7718C10.153 14.5606 10.1456 14.3568 10.1335 14.3446C10.1213 14.3325 10.0728 14.3326 10.0559 14.3568C10.0389 14.381 9.92962 14.6214 9.92466 14.6578V14.6578H9.92482Z" fill="#585136"/>
<path fill-rule="evenodd" clip-rule="evenodd" d="M9.70876 15.9005C9.70876 15.9005 9.6238 15.8471 9.54124 15.8835C9.46364 15.92 9.46844 16.0632 9.46844 16.0632C9.50389 16.0771 9.5439 16.0725 9.57532 16.0511C9.62876 16.0147 9.6966 15.9541 9.70876 15.9007V15.9005Z" fill="#574F35"/>
<path fill-rule="evenodd" clip-rule="evenodd" d="M9.86892 16.0923C9.86412 16.0443 9.82092 16.0443 9.82092 16.0195C9.82704 15.9951 9.84905 15.9781 9.8742 15.9782C9.89852 15.9782 9.9222 16.0074 9.95196 16.0262C9.98108 16.0432 10.0248 16.0742 10.0296 16.1112C10.0344 16.1482 9.98156 16.2494 9.92284 16.2494C9.86412 16.2494 9.88156 16.1402 9.8694 16.0917L9.86892 16.0923ZM10.3374 16.0267C10.3374 16.0267 10.2403 16.0558 10.2475 16.0267C10.2547 15.9976 10.2768 15.9904 10.3083 15.9904C10.3243 15.9736 10.3458 15.9632 10.3689 15.9611C10.3821 15.9605 10.3951 15.9648 10.4052 15.9733C10.4052 15.9733 10.4708 15.9442 10.4902 15.9611C10.5096 15.9781 10.4952 15.9781 10.5072 15.9976C10.5224 16.0193 10.5325 16.0442 10.5364 16.0704C10.5364 16.0898 10.4636 16.131 10.4052 16.1238C10.3374 16.1093 10.3494 16.0389 10.3374 16.0267V16.0267ZM10.9028 15.9174C10.9028 15.9174 10.932 15.9344 10.9078 15.9539C10.8908 15.9709 10.8059 16.0019 10.7329 16.0074C10.6601 16.0074 10.5947 16.0194 10.5947 15.9952C10.5947 15.971 10.6553 15.9224 10.6916 15.9102C10.7064 15.8918 10.7288 15.881 10.7524 15.8811C10.7816 15.8811 10.8955 15.869 10.9272 15.8642C10.9563 15.8592 10.9806 15.8762 10.9635 15.9005C10.9563 15.9174 10.9028 15.9174 10.9028 15.9174V15.9174ZM11.0704 15.168C11.0704 15.168 11.0339 15.2456 10.9928 15.2456C10.9515 15.2408 10.9515 15.2286 10.9515 15.2165C10.9515 15.1995 10.9928 15.1558 10.9878 15.1437C10.9758 15.1437 10.9465 15.1437 10.9515 15.1146C10.9515 15.0902 10.9928 15.0611 11.0291 15.0666C11.0565 15.044 11.0907 15.0312 11.1262 15.0302C11.1675 15.0302 11.2038 15.0422 11.2038 15.0666C11.2038 15.0909 11.1558 15.1442 11.1382 15.1565C11.1188 15.1758 11.0945 15.1885 11.0704 15.1685V15.168ZM10.5169 16.6024C10.5169 16.6024 10.4689 16.6074 10.4689 16.6315C10.4689 16.6437 10.4809 16.6437 10.498 16.6365C10.5079 16.6359 10.5177 16.6343 10.5272 16.6315C10.532 16.6365 10.532 16.6606 10.5684 16.6606C10.5984 16.6566 10.6273 16.6467 10.6534 16.6315C10.6825 16.6195 10.7068 16.6072 10.7068 16.5835C10.6947 16.5422 10.6704 16.5227 10.634 16.5227C10.6154 16.5215 10.5969 16.5258 10.5806 16.5349C10.5806 16.5349 10.5684 16.5106 10.5272 16.5349C10.4859 16.5592 10.4907 16.5592 10.5028 16.5714C10.5246 16.5907 10.5174 16.6034 10.5174 16.6034L10.5169 16.6024ZM10.2427 16.8549C10.2427 16.8427 10.3033 16.8184 10.3203 16.8258C10.3372 16.8306 10.3857 16.9227 10.3857 16.9325C10.3857 16.9446 10.3251 16.9738 10.3008 16.9738C10.2764 16.9738 10.2353 16.9325 10.2353 16.9258C10.2353 16.921 10.2644 16.9138 10.2644 16.9088C10.2716 16.8968 10.2427 16.8675 10.2427 16.8554V16.8549ZM10.0507 16.5005C10.0628 16.4957 10.0628 16.4835 10.0798 16.4714C10.0906 16.4642 10.104 16.4624 10.1163 16.4666C10.1249 16.4511 10.1401 16.4403 10.1576 16.4373C10.1867 16.4325 10.211 16.4373 10.2056 16.4494C10.2056 16.4859 10.2299 16.5101 10.2299 16.5392C10.2299 16.5683 10.2129 16.6048 10.1523 16.6291C10.0916 16.6461 10.0091 16.6461 9.99692 16.6413C9.98476 16.6365 9.9726 16.5878 9.98476 16.5635C9.99692 16.5392 10.0308 16.5126 10.0504 16.5005V16.5005H10.0507Z" fill="#82764F"/>
<path fill-rule="evenodd" clip-rule="evenodd" d="M10.128 16.517C10.128 16.517 10.0867 16.5413 10.0867 16.5534C10.083 16.5652 10.0814 16.5775 10.0819 16.5898C10.0819 16.597 10.1353 16.585 10.1425 16.5776C10.1449 16.5728 10.128 16.5296 10.128 16.517Z" fill="#6E6342"/>
<path fill-rule="evenodd" clip-rule="evenodd" d="M9.76705 16.4029C9.79121 16.4078 9.83249 16.4029 9.86401 16.415C9.88833 16.4272 9.90529 16.4515 9.88097 16.4806C9.85665 16.5098 9.83297 16.5534 9.77905 16.5461C9.71841 16.5413 9.66017 16.5098 9.66017 16.4854C9.65811 16.4544 9.6686 16.4238 9.68929 16.4005C9.71361 16.3811 9.72561 16.3933 9.76689 16.4029V16.4029H9.76705Z" fill="#585136"/>
<path fill-rule="evenodd" clip-rule="evenodd" d="M9.73787 16.4272C9.73787 16.4272 9.66027 16.4878 9.64075 16.5171C9.61643 16.5462 9.49755 16.6966 9.46123 16.7281C9.47329 16.7069 9.48704 16.6866 9.50235 16.6675C9.45435 16.6982 9.41836 16.7445 9.40043 16.7985C9.37131 16.8885 9.56315 16.9369 9.68923 16.9734C9.81531 17.0099 9.86411 17.0214 9.86411 17.0214C9.81769 16.9517 9.77784 16.8777 9.74507 16.8006C9.69707 16.6865 9.67227 16.6744 9.70379 16.6209C9.72811 16.5675 9.76459 16.5312 9.76459 16.4899C9.75003 16.4515 9.73787 16.4272 9.73787 16.4272Z" fill="#574F35"/>
<path fill-rule="evenodd" clip-rule="evenodd" d="M6.9709 16.619C6.98857 16.6223 7.00668 16.6223 7.02434 16.619C7.06066 16.6141 7.43938 16.475 7.83506 16.5C8.13127 16.5179 8.42486 16.5662 8.71122 16.644C9.20882 16.775 9.8277 17.0347 10.2282 17.1829C10.3349 17.224 10.4394 17.297 10.5162 17.3259C10.8221 17.445 10.8341 17.445 11.0138 17.4765C11.225 17.5056 11.441 17.4352 11.6667 17.3867C11.9434 17.3259 12.4167 17.2968 12.8317 17.2362C12.9659 17.2176 13.0983 17.1875 13.2274 17.1464C13.2274 17.1464 12.8973 17.4765 12.1059 17.5954C11.7861 17.6439 11.461 17.648 11.14 17.6075C10.8875 17.5832 10.7202 17.5467 10.5939 17.5104C10.4507 17.4691 10.157 17.3598 9.79538 17.2704C9.5429 17.2048 9.2613 17.1563 8.93858 17.0957C8.14242 16.9499 7.27842 16.7826 6.97058 16.62L6.9709 16.619Z" fill="#252211"/>
<path fill-rule="evenodd" clip-rule="evenodd" d="M6.07755 15.119C5.88555 15.2816 5.68187 15.4369 5.48299 15.5873L4.88347 16.048C4.67963 16.1984 4.48059 16.3537 4.27659 16.5043C4.07259 16.6549 3.86891 16.7979 3.65259 16.9363C3.84459 16.7737 4.04827 16.6232 4.25211 16.4752C4.45595 16.3272 4.66731 16.1821 4.86395 16.032L5.46347 15.5707C5.66971 15.4203 5.86875 15.2649 6.07755 15.1193V15.119ZM5.01691 16.8181C5.01691 16.8181 5.23291 16.6384 5.50235 16.3861C5.83723 16.0731 6.24747 15.6725 6.37851 15.5998L5.01675 16.8182L5.01691 16.8181Z" fill="#CFB66C"/>
<path fill-rule="evenodd" clip-rule="evenodd" d="M5.01697 16.8179C5.12385 16.7112 5.23793 16.6069 5.35201 16.5048L5.52673 16.3544C5.58017 16.3064 5.64097 16.2525 5.69425 16.199C5.80097 16.0923 5.90545 15.9781 6.01217 15.8689C6.06506 15.8141 6.12099 15.7622 6.17969 15.7136C6.20903 15.6876 6.24163 15.6656 6.27665 15.648C6.30593 15.631 6.33745 15.6 6.37857 15.5945C6.35441 15.631 6.32529 15.648 6.30097 15.6795C6.27185 15.7038 6.24753 15.7329 6.22337 15.7571C6.16993 15.8105 6.10929 15.859 6.05585 15.9077C5.94177 16.0048 5.82289 16.0997 5.70881 16.2013C5.59473 16.3029 5.48801 16.4125 5.37377 16.5144C5.25009 16.6189 5.13601 16.7208 5.01697 16.8184V16.8179ZM6.46849 15.847C6.46849 15.847 5.67729 16.6214 5.51457 16.7475L6.46849 15.847Z" fill="#CFB66C"/>
<path fill-rule="evenodd" clip-rule="evenodd" d="M6.46845 15.847C6.39727 15.9294 6.32096 16.0072 6.23997 16.08L5.99997 16.3082C5.92237 16.3858 5.84941 16.4635 5.76701 16.5411C5.68205 16.6139 5.60445 16.6851 5.51453 16.7523L5.74749 16.5242C5.82525 16.4466 5.91021 16.3811 5.99277 16.3034L6.22573 16.0752C6.30573 15.9952 6.38349 15.9174 6.46845 15.847V15.847ZM6.50477 16.2669C6.43184 16.4704 6.3459 16.6691 6.24749 16.8616C6.04365 17.2695 5.73789 17.7791 5.60429 18.0389L6.50477 16.2669Z" fill="#CFB66C"/>
<path fill-rule="evenodd" clip-rule="evenodd" d="M6.50477 16.267C6.50477 16.3568 6.48045 16.4345 6.45133 16.5121C6.42294 16.5898 6.39058 16.666 6.35437 16.7403C6.31789 16.8131 6.27661 16.8909 6.23533 16.9613C6.19405 17.0317 6.14557 17.1043 6.10909 17.1773L5.86397 17.6093C5.77901 17.7533 5.69645 17.8981 5.60669 18.0365C5.66733 17.8811 5.74989 17.7355 5.82765 17.5923C5.91261 17.4483 5.99021 17.3043 6.06765 17.1553C6.10546 17.0811 6.13948 17.005 6.16957 16.9273C6.20589 16.8496 6.24221 16.7768 6.27149 16.7064C6.30781 16.6288 6.33693 16.5558 6.37341 16.4856C6.41453 16.4102 6.44861 16.3374 6.50445 16.267L6.50477 16.267Z" fill="#CFB66C"/>
<path fill-rule="evenodd" clip-rule="evenodd" d="M7.36893 18.2573C7.36893 18.2573 7.12893 18.5752 7.15293 18.9781C7.21837 18.767 7.30093 18.4441 7.36893 18.2573ZM7.59709 18.576C7.59709 18.576 7.51213 19.44 7.44173 19.8648C7.54125 19.3738 7.56061 19.415 7.59709 18.576ZM9.18685 19.9158C9.18685 19.9158 8.82765 20.9718 8.82029 21.2653C8.89805 20.9635 9.04845 20.347 9.18685 19.915V19.9158Z" fill="#DEC270"/>
<path fill-rule="evenodd" clip-rule="evenodd" d="M10.0267 18.192C10.0267 18.192 10.6093 19.1531 11.0463 19.9735C10.928 19.5607 10.656 18.8035 10.0267 18.192Z" fill="#CBAF59"/>
<path fill-rule="evenodd" clip-rule="evenodd" d="M11.5923 19.6069C11.9121 20.1723 12.2006 20.7548 12.4563 21.352C12.4078 20.9394 12.2766 20.2331 11.5923 19.6069Z" fill="#E3C677"/>
<path fill-rule="evenodd" clip-rule="evenodd" d="M16.1943 21.024C16.2913 20.9634 16.4831 20.6331 16.6506 20.5507C16.818 20.4658 16.9442 20.4488 17.0948 20.2813C17.2452 20.1064 17.2868 19.9997 17.6165 19.8614C18.0778 19.6622 17.7605 19.405 17.7605 19.405C17.8114 19.355 17.8657 19.3088 17.9231 19.2667C18.0421 19.177 18.1804 19.0677 18.1684 18.8758C18.1514 18.5531 18.0908 18.0846 17.8261 17.8128C18.0834 17.7594 18.5761 17.723 18.8821 17.6454C19.2364 17.5555 19.3991 17.4293 19.3991 17.4293C19.3991 17.4293 19.1953 17.0822 19.5253 16.7328C19.8554 16.3834 20.1249 16.1746 20.3239 15.7837C20.0957 15.7546 19.7479 15.6333 18.8602 15.9706C18.9081 15.9931 18.9544 16.019 18.9986 16.0482C18.9986 16.0482 18.4525 16.1987 18.2535 16.3662C17.9063 16.6598 17.8626 16.9002 17.4865 17.0798C17.1103 17.2595 16.7316 17.2109 16.4186 17.3565C16.1057 17.5021 16.0594 17.6259 15.9452 17.6794C15.9695 17.7085 15.9404 17.757 15.9865 17.7982C15.9573 17.8395 15.7874 18.1162 15.6151 18.1162C15.6321 18.1818 15.7777 18.2302 15.7777 18.2302C15.7777 18.2302 15.6709 18.308 15.3991 18.3274C15.5373 18.4714 15.6685 18.6283 16.0301 18.8565C16.001 18.9171 15.8796 19.007 15.9282 19.1211C15.9817 19.2352 16.1202 19.3906 16.6733 19.5168C16.3917 19.5288 16.0618 19.5944 15.6173 19.5338C15.1732 19.4803 15.1004 19.4488 14.8261 19.5168C14.8553 19.5459 14.9329 19.5459 15.0009 19.6235C14.9281 19.6283 14.4717 19.5701 14.3164 19.7741C14.1538 19.9851 14.0834 20.3323 14.0956 20.5653C14.0106 20.6066 13.9281 20.6794 13.9693 20.8299C14.0106 20.9805 14.2266 21.029 14.365 21.1235C14.5033 21.2254 14.5154 21.2618 14.6466 21.2376C14.7849 21.2085 14.9887 21.0702 15.1077 21.0702C15.2268 21.0702 15.3116 21.16 15.3116 21.16C15.3116 21.16 15.6345 21.0046 15.666 21.0338C15.6951 21.0629 15.6708 21.2498 15.7023 21.2789C15.7343 21.3008 16.098 21.0848 16.1951 21.024H16.1943Z" fill="#ECD592"/>
</svg>
