<svg width="30" height="30" viewBox="0 0 30 30" fill="none" xmlns="http://www.w3.org/2000/svg">
<circle cx="15.125" cy="14.875" r="13.375" fill="white"/>
<path fill-rule="evenodd" clip-rule="evenodd" d="M0 15C0 6.71573 6.7157 0 14.9999 0H15.0871C19.0538 0.0115422 22.8534 1.59838 25.6501 4.41143C28.4468 7.22448 30.0114 11.0333 29.9999 15C29.9999 23.2843 23.2842 30 14.9999 30C6.7157 30 0 23.2843 0 15ZM13.6924 20.7748L15.2542 15.5085L17.6876 14.8184L18.196 13.075L15.799 13.8014L18.3413 5.15736V5.01935C18.3375 4.90759 18.2895 4.80192 18.2077 4.72562C18.126 4.64932 18.0172 4.60865 17.9055 4.61257H14.6731C14.4213 4.60481 14.1965 4.76959 14.1283 5.01208L11.1138 15.2542L8.71667 15.9806L8.17188 17.6513L10.569 16.9249L8.42611 24.2252H21.2106C21.4632 24.2356 21.6894 24.0697 21.7554 23.8256L22.4817 21.3196V21.1816C22.478 21.0698 22.4299 20.9641 22.3481 20.8878C22.2664 20.8115 22.1577 20.7709 22.0459 20.7748H13.6924Z" fill="#345D9D"/>
</svg>
